<?xml version="1.0" encoding="utf-8"?>
<svg viewBox="31.601 30.321 672.956 548.683" xmlns="http://www.w3.org/2000/svg" xmlns:bx="https://boxy-svg.com">
  <defs>
    <linearGradient id="color-0" gradientUnits="userSpaceOnUse" bx:pinned="true">
      <title>accentColor</title>
      <stop style="stop-color: rgb(97, 136, 129);"/>
    </linearGradient>
    <linearGradient id="color-1" gradientUnits="userSpaceOnUse" gradientTransform="matrix(1.458807, 0, 0, 0.237709, 976.950623, -31.20734)" bx:pinned="true">
      <title>gray</title>
      <stop style="stop-color: rgb(111, 108, 108);"/>
    </linearGradient>
    <linearGradient id="color-2" gradientUnits="userSpaceOnUse" gradientTransform="matrix(0.990671, 0, 0, 0.967029, 6.39521, 13.117193)" bx:pinned="true">
      <title>gold</title>
      <stop style="stop-color: rgb(209, 176, 66);"/>
    </linearGradient>
    <linearGradient id="color-3" gradientUnits="userSpaceOnUse" bx:pinned="true">
      <title>red</title>
      <stop style="stop-color: rgb(111, 35, 35);"/>
    </linearGradient>
    <linearGradient id="color-4" gradientUnits="userSpaceOnUse" bx:pinned="true">
      <title>dark</title>
      <stop style="stop-color: rgb(39, 37, 37);"/>
    </linearGradient>
    <linearGradient id="color-5" gradientUnits="userSpaceOnUse" gradientTransform="matrix(1, 0, 0, 1, -1, 0)" bx:pinned="true">
      <title>black</title>
      <stop style="stop-color: rgb(0, 0, 0);"/>
    </linearGradient>
    <linearGradient id="color-6" gradientUnits="userSpaceOnUse" bx:pinned="true">
      <title>ledsOff</title>
      <stop style="stop-color: rgb(112, 96, 96);"/>
    </linearGradient>
    <linearGradient x1="0" x2="0" y1="0" y2="1" id="gradient-0">
      <stop offset="0" style="stop-color: rgb(0, 0, 0);"/>
    </linearGradient>
    <linearGradient x1="0" x2="0" y1="0" y2="1" id="gradient-1">
      <stop offset="0" style="stop-color: rgb(0, 0, 0);"/>
    </linearGradient>
    <linearGradient x1="0" x2="0" y1="0" y2="1" id="gradient-8">
      <stop offset="0" style="stop-color: rgb(0, 0, 0);"/>
    </linearGradient>
    <linearGradient x1="0" x2="0" y1="0" y2="1" id="gradient-9">
      <stop offset="0" style="stop-color: rgb(0, 0, 0);"/>
    </linearGradient>
    <linearGradient x1="0" x2="0" y1="0" y2="1" id="gradient-18">
      <stop offset="0" style="stop-color: rgb(0, 0, 0);"/>
    </linearGradient>
    <linearGradient x1="0" x2="0" y1="0" y2="1" id="gradient-19">
      <stop offset="0" style="stop-color: rgb(0, 0, 0);"/>
    </linearGradient>
    <linearGradient x1="0" x2="0" y1="0" y2="1" id="gradient-20">
      <stop offset="0" style="stop-color: rgb(0, 0, 0);"/>
    </linearGradient>
    <linearGradient x1="0" x2="0" y1="0" y2="1" id="gradient-21">
      <stop offset="0" style="stop-color: rgb(0, 0, 0);"/>
    </linearGradient>
    <linearGradient x1="0" x2="0" y1="0" y2="1" id="gradient-2">
      <stop offset="0" style="stop-color: rgb(0, 0, 0);"/>
    </linearGradient>
  </defs>
  <path style="stroke: rgb(0, 0, 0); transform-box: fill-box; transform-origin: 50% 50%; fill: url(#color-4);" d="M 36.905 66.418 L 36.051 510.978 L 56.977 510.551 L 56.977 480.23 L 62.955 470.408 L 69.361 462.721 L 77.475 460.586 L 88.152 458.878 L 98.828 460.159 L 105.661 462.294 L 114.202 469.127 L 118.045 478.095 L 122.316 510.551 L 188.936 512.259 L 191.498 474.678 L 208.153 459.305 L 229.505 458.45 L 248.296 469.554 L 255.128 510.978 L 338.83 511.405 L 335.841 474.678 L 356.767 456.315 L 383.671 457.596 L 399.045 474.678 L 402.461 510.551 L 485.736 511.832 L 487.871 469.981 L 507.516 458.45 L 533.139 459.732 L 546.804 477.668 L 549.794 510.124 L 616.841 510.978 L 617.695 474.678 L 632.215 459.732 L 651.005 456.315 L 664.67 458.878 L 676.628 469.981 L 683.034 490.906 L 682.607 509.27 L 702.251 507.134 L 701.824 73.677 L 692.856 58.304 L 683.888 54.033 L 61.247 52.752 L 48.863 57.877 L 36.905 66.418 Z">
    <title>Background</title>
  </path>
  <path style="fill: url(#color-0);" d="M 72.242 400.74 L 109.091 366.596 L 110.781 371.667 L 110.781 403.107 L 72.242 400.74 Z">
    <title>A - Color</title>
  </path>
  <path style="fill: url(#color-0);" d="M 631.732 221.568 L 631.056 262.136 L 671.623 221.23 L 631.732 221.568 Z">
    <title>B - Color</title>
  </path>
  <g>
    <title>B - Triangle</title>
    <g stroke-linecap="round" transform="matrix(1, 0, 0, 1, 23.749705, -79.054513)">
      <g transform="translate(607.4496043330043 298.7333780924479) rotate(0 -0.41423895719617576 21.06373106315732)">
        <path d="M0.13 1.06 C-0.94 13.22, -1.51 24.1, -0.19 39.14 M-0.12 0.91 C-0.04 13.33, 0.04 26.35, -0.49 41.22" stroke-width="4" fill="none" style="stroke: url(#color-5);"/>
      </g>
    </g>
    <g stroke-linecap="round" transform="matrix(1, 0, 0, 1, 23.749705, -79.054513)" style="">
      <g transform="translate(607.4636968058257 300.0695798906187) rotate(0 20.222697233095914 20.04315679706633)">
        <path d="M0.04 -0.15 C10.55 0.24, 18.8 -1.19, 38.8 0.02 M0.28 -0.37 C10.51 0.86, 19.83 0.17, 40.14 0.12 M39.85 -1.32 C31.94 12.5, 20.74 22.97, 0.3 40.82 M40.7 0.03 C30.66 9.26, 22.1 20.77, -0.25 41.4" stroke-width="4" fill="none" style="stroke: url(#color-5);"/>
      </g>
    </g>
  </g>
  <g>
    <title>A - Triangle</title>
    <g stroke-linecap="round" transform="matrix(1, 0, 0, 1, 23.749705, -79.054513)" style="">
      <g transform="translate(87.84944816449911 442.57299134197274) rotate(180 -0.170202499255538 20.4672021754086)">
        <path d="M-0.77 0.31 C0.52 11.12, -1.37 19.28, -0.32 40.49 M0.11 0.14 C0.21 9.33, 0.38 17.49, 0.43 40.8" stroke-width="4" fill="none" style="stroke: url(#color-5);"/>
      </g>
    </g>
    <g stroke-linecap="round" transform="matrix(1, 0, 0, 1, 23.749705, -79.054513)" style="">
      <g transform="translate(46.384165247475494 443.4901785707722) rotate(180 20.555392722845227 19.340507661923766)">
        <path d="M0.44 1.49 C10.21 -0.04, 23.01 -0.38, 39.1 -1.44 M0.51 0.54 C8.89 -0.15, 16.86 -0.06, 41.65 0.98 M42.09 0.39 C27.05 12.85, 14.75 25.08, 0.37 39.31 M41.74 0.68 C31.17 7.83, 22.99 17.64, -0.98 40.12" stroke-width="4" fill="none" style="stroke: url(#color-5);"/>
      </g>
    </g>
  </g>
  <g>
    <title>Upper Peak Color</title>
    <path style="fill: url(#color-0);" d="M 191.331 122.372 L 264.247 53.485 L 189.317 53.485 L 188.511 122.775">
      <title>Upper Peak Color - Med</title>
    </path>
    <path style="fill: url(#color-0);" d="M 35.428 200.123 L 189.317 53.888 L 59.599 53.888 L 47.111 57.111 L 40.262 63.153 L 36.637 70.002 L 35.428 200.123 Z">
      <title>Upper Peak Color - Large</title>
    </path>
    <path style="fill: url(#color-0);" d="M 270.29 51.874 L 268.679 84.504 L 301.713 53.888 L 270.29 51.874 Z">
      <title>Upper Peak Color - Small</title>
    </path>
  </g>
  <rect x="69.55" y="275.739" width="79.47" height="75.546" style="fill: url(#color-1);">
    <title>A - Button  Outline - Color</title>
  </rect>
  <g stroke-linecap="round" transform="matrix(1, 0, 0, 1, 70.399707, 277.278505)">
    <title>A - Button Outline</title>
    <path d="M1.46 0.82 C26.97 1.44, 56.92 -0.88, 76.03 -0.16 M0.95 0.19 C17.78 -0.08, 34.59 -1.49, 76.37 0.1 M78.62 1.26 C75.84 22.42, 78.5 44.46, 75.03 74.36 M77.63 -0.52 C75.54 19.21, 77.3 38.82, 77.69 72.74 M76.33 74.69 C48.4 75.05, 20.6 74.77, 1.04 74.79 M77.71 72.78 C59.72 72.61, 42.99 74.52, -0.85 72.8 M0.06 74.43 C0.08 54.55, -1.76 38.51, 0.73 -1.54 M0.38 73.06 C1.1 58.64, -0.18 43.7, 0.81 0.02" stroke-width="4" fill="none" style="stroke: url(#color-5);"/>
  </g>
  <g stroke-linecap="round" transform="matrix(1, 0, 0, 1, 87.199706, 292.478486)">
    <title>A - Button</title>
    <path d="M11.16 2.94 C14.59 0.96, 20.3 0.44, 24.29 1.18 C28.28 1.93, 32.67 4.15, 35.1 7.43 C37.53 10.7, 39.2 16.64, 38.87 20.82 C38.55 25.01, 36.14 29.31, 33.16 32.52 C30.17 35.73, 25.17 39.53, 20.96 40.09 C16.76 40.65, 11.42 38.25, 7.94 35.87 C4.46 33.49, 1.2 29.71, 0.11 25.82 C-0.98 21.92, -0.65 16.57, 1.4 12.5 C3.44 8.42, 10.06 3.41, 12.4 1.38 C14.74 -0.66, 15.33 -0.08, 15.45 0.28 M22.23 0.21 C26.55 0.88, 33.82 5.62, 36.46 8.99 C39.09 12.37, 38.43 16.73, 38.04 20.46 C37.66 24.19, 36.55 28.33, 34.15 31.38 C31.76 34.42, 27.6 37.79, 23.67 38.73 C19.75 39.67, 14.4 39.11, 10.6 37.02 C6.79 34.93, 2.31 30.42, 0.84 26.18 C-0.63 21.94, 0.11 15.57, 1.8 11.57 C3.5 7.57, 7.21 4.23, 11.03 2.19 C14.85 0.15, 22.44 -0.34, 24.71 -0.67 C26.98 -1, 25.11 -0.21, 24.65 0.21" stroke="none" stroke-width="0" style="fill: url(#color-5);"/>
    <path d="M28.07 2.75 C31.95 4.49, 36.36 8.23, 38.13 12.05 C39.91 15.87, 40.11 21.77, 38.73 25.66 C37.36 29.56, 33.34 33.12, 29.88 35.41 C26.42 37.71, 22.22 39.98, 17.98 39.41 C13.74 38.84, 7.57 35.22, 4.44 31.99 C1.3 28.76, -0.82 24.17, -0.83 20.03 C-0.84 15.9, 1.61 10.39, 4.38 7.2 C7.14 4.01, 11.52 1.38, 15.75 0.88 C19.99 0.38, 26.91 3.49, 29.79 4.2 C32.67 4.91, 32.98 5.05, 33.02 5.14 M29.48 2.61 C33.34 4.22, 36.55 8.66, 37.82 12.32 C39.1 15.98, 38.43 20.45, 37.11 24.57 C35.78 28.69, 33.23 34.65, 29.88 37.06 C26.54 39.47, 21.27 39.84, 17.04 39.02 C12.81 38.21, 7.38 35.35, 4.51 32.15 C1.64 28.95, 0.08 23.62, -0.18 19.84 C-0.44 16.06, 0.66 12.56, 2.94 9.48 C5.22 6.39, 9.31 2.7, 13.5 1.32 C17.69 -0.05, 25.39 1.24, 28.06 1.23 C30.74 1.22, 29.42 0.99, 29.55 1.27" stroke-width="4" style="fill: url(#color-5); stroke: url(#color-5);"/>
  </g>
  <rect x="596.084" y="275.739" width="79.47" height="75.546" style="stroke: rgb(0, 0, 0); fill: url(#color-1);">
    <title>B - Button  Outline - Color</title>
  </rect>
  <g stroke-linecap="round" transform="matrix(1, 0, 0, 1, 596.799701, 275.678498)" style="">
    <title>B - Button Outline</title>
    <path d="M0.96 -1.29 C21.62 0.41, 43.7 0.23, 78.29 -0.76 M-0.65 -0.06 C26.52 0.44, 53.31 0.78, 75.88 -1 M78.48 -1.18 C78.41 23.64, 75.01 45, 76.75 72.48 M75.87 0.16 C76.9 20.05, 75.97 41.65, 77.45 74.06 M78.24 75.6 C48.9 75.75, 21.43 73.01, 0.42 71.93 M76.34 73.37 C52.8 72.41, 26.16 74.32, 0.65 73.03 M-0.1 72.3 C-2.24 54.2, -0.31 38.59, -0.61 -0.41 M0.57 72.89 C0.56 57.36, 0.18 41.28, -0.5 0.61" stroke-width="4" fill="none" style="stroke: url(#color-5);"/>
  </g>
  <g stroke-linecap="round" transform="matrix(1, 0, 0, 1, 613.599689, 290.878511)">
    <title>B - Button</title>
    <path d="M9.82 1.71 C13.15 -0.39, 19.96 0.15, 24.15 1.01 C28.35 1.88, 32.64 3.8, 34.99 6.88 C37.34 9.96, 38.38 15.12, 38.24 19.47 C38.11 23.82, 36.89 29.76, 34.18 32.98 C31.48 36.2, 26.32 38.19, 22.03 38.81 C17.73 39.42, 12.01 38.74, 8.42 36.64 C4.84 34.54, 1.81 30.15, 0.53 26.23 C-0.76 22.31, -1.07 17.1, 0.71 13.13 C2.49 9.16, 9.27 4.34, 11.2 2.39 C13.14 0.43, 12.09 1.31, 12.33 1.41 M19.93 -1.08 C24.4 -1.11, 30.71 0.99, 34.13 4.07 C37.56 7.15, 40.27 13.21, 40.47 17.4 C40.66 21.59, 37.95 25.8, 35.31 29.23 C32.67 32.65, 28.53 36.59, 24.62 37.94 C20.71 39.28, 15.59 38.67, 11.86 37.3 C8.13 35.92, 4.16 33.17, 2.25 29.69 C0.34 26.21, -0.68 20.67, 0.38 16.42 C1.45 12.16, 5.15 6.64, 8.63 4.15 C12.12 1.66, 19.35 2.32, 21.31 1.49 C23.27 0.65, 20.74 -0.79, 20.41 -0.84" stroke="none" stroke-width="0" style="fill: url(#color-5);"/>
    <path d="M25.88 0.42 C29.85 1.15, 34.21 4.87, 36.41 8.33 C38.61 11.78, 39.64 16.94, 39.08 21.14 C38.52 25.35, 36.02 30.6, 33.05 33.58 C30.08 36.56, 25.31 38.86, 21.26 39.01 C17.21 39.15, 12.36 36.93, 8.74 34.46 C5.12 31.98, 0.74 28.06, -0.45 24.17 C-1.64 20.28, -0.58 14.99, 1.59 11.14 C3.76 7.29, 8.2 2.51, 12.6 1.05 C16.99 -0.42, 25.41 1.98, 27.95 2.35 C30.49 2.73, 28.13 3.23, 27.84 3.29 M16.4 0.33 C20.77 -0.37, 28.26 0.08, 31.91 2.49 C35.55 4.89, 37.19 10.41, 38.27 14.74 C39.35 19.07, 39.96 24.71, 38.39 28.48 C36.82 32.25, 32.71 35.5, 28.88 37.36 C25.04 39.22, 19.35 40.74, 15.38 39.64 C11.42 38.53, 7.43 34.36, 5.1 30.74 C2.77 27.12, 1.42 22.04, 1.39 17.94 C1.36 13.83, 2.41 9.04, 4.94 6.13 C7.46 3.21, 14.53 1.46, 16.54 0.43 C18.54 -0.59, 16.84 -0.24, 16.96 -0.03" stroke-width="4" style="fill: url(#color-5); stroke: url(#color-5);"/>
  </g>
  <g>
    <title>B</title>
    <path style="fill: none; stroke: url(#color-5); stroke-width: 2px;" d="M 638.223 230.026 C 638.919 231.419 638.562 233.701 638.562 235.341 C 638.562 238.233 639.014 240.863 639.014 243.709"/>
    <path style="fill: none; stroke: url(#color-5); stroke-width: 2px;" d="M 638.449 230.365 C 639.461 230.365 642.782 229.723 643.425 230.365 C 643.789 230.729 644.229 231.056 644.556 231.383 C 644.817 231.644 644.6 232.15 644.782 232.514 C 646.601 236.151 640.969 236.019 638.449 236.019"/>
    <path style="fill: none; stroke: url(#color-5); stroke-width: 2px;" d="M 641.389 235.906 C 644.032 235.906 647.995 238.348 645.121 241.221 C 643.63 242.712 640.569 242.465 637.996 242.465"/>
  </g>
  <g transform="matrix(1, 0, 0, 1, 1, -2)">
    <title>A</title>
    <path style="fill: none; stroke: url(#gradient-2); stroke-width: 2px;" d="M 92.343 399.32 C 92.537 398.353 93.312 397.107 93.926 396.493 C 94.735 395.684 94.908 393.173 95.51 391.969 C 96.095 390.799 95.815 389.324 96.414 388.124 C 96.486 387.982 97.043 386.83 97.093 386.88 C 97.628 387.415 97.844 389.021 98.111 389.82 C 98.815 391.933 100.481 394.334 101.617 396.606 C 102.082 397.536 102.204 399.116 102.861 399.772"/>
    <path style="fill: none; stroke: url(#color-5); stroke-width: 2px;" d="M 94.605 395.135 C 96.895 395.135 99.27 395.135 101.617 395.135"/>
  </g>
  <rect x="310.3" y="34.338" width="115.931" height="17.958" style="stroke: rgb(0, 0, 0); fill: url(#color-1);">
    <title>USB - Color</title>
  </rect>
  <g stroke-linecap="round" transform="matrix(1, 0, 0, 1, 308.799687, 35.678494)">
    <title>USB</title>
    <path d="M1.07 0.85 C33.1 -1.16, 67.13 -2.06, 117.81 -0.49 M0.86 0.91 C24.3 -0.33, 50.54 -1.17, 117.84 -0.94 M118.04 -1.34 C117.74 5.33, 116.96 11.65, 117.85 17.47 M117.95 -0.38 C118.09 4.08, 119.11 8.02, 118.19 16.72 M120.17 14.54 C91.45 15.26, 66.99 16.38, -0.67 16.76 M118.08 15.78 C90.56 16.17, 63.69 16.47, 0.43 16.22 M0.45 17.05 C0.52 9.23, -0.65 3.56, -1.5 -1.11 M0.47 15.83 C-0.25 9.96, -0.57 4.88, 0.5 -0.17" stroke-width="4" fill="none" style="stroke: url(#color-5);"/>
  </g>
  <g>
    <title>Pins - Color</title>
    <path style="fill: url(#color-2);" d="M 35.624 511.405 L 36.905 556.672 L 46.301 570.338 L 56.55 573.327 L 682.607 574.181 L 695.845 566.494 L 700.116 557.526 L 701.397 507.988 L 665.098 508.843 L 659.546 514.394 L 650.578 516.529 L 639.474 515.675 L 631.788 510.551 L 531.431 510.124 L 522.462 514.821 L 507.943 514.394 L 500.256 510.978 L 386.233 510.978 L 381.109 514.821 L 371.286 516.529 L 359.329 514.821 L 352.496 511.832 L 234.63 510.978 L 229.078 515.248 L 214.559 514.394 L 206.872 511.405 L 102.671 511.405 L 94.13 515.248 L 86.443 516.529 L 77.902 512.686 L 35.624 511.405 Z"/>
    <path d="M 89.646 491.121 m -33.754 0 a 33.754 38.004 0 1 0 67.508 0 a 33.754 38.004 0 1 0 -67.508 0 Z M 89.646 491.121 m -26.238 0 a 26.238 23.189 0 0 1 52.476 0 a 26.238 23.189 0 0 1 -52.476 0 Z" style="transform-box: fill-box; transform-origin: 51.2579% 50%; fill: url(#color-2);" transform="matrix(0.999544, -0.030186, 0.018368, 0.999901, -1.182978, 1.513425)" bx:shape="ring 89.646 491.121 26.238 23.189 33.754 38.004 1@6e4189c6"/>
    <path d="M 89.646 491.121 m -33.754 0 a 33.754 38.004 0 1 0 67.508 0 a 33.754 38.004 0 1 0 -67.508 0 Z M 89.646 491.121 m -26.238 0 a 26.238 25.75 0 0 1 52.476 0 a 26.238 25.75 0 0 1 -52.476 0 Z" style="transform-origin: 90.495px 491.121px; fill: url(#color-2);" transform="matrix(0.999544, -0.030186, 0.018368, 0.999901, 132.160448, 1.899503)" bx:shape="ring 89.646 491.121 26.238 25.75 33.754 38.004 1@c27e0ea0"/>
    <path d="M 89.646 491.121 m -33.754 0 a 33.754 38.004 0 1 0 67.508 0 a 33.754 38.004 0 1 0 -67.508 0 Z M 89.646 491.121 m -23.418 0 a 23.418 23.189 0 0 1 46.836 0 a 23.418 23.189 0 0 1 -46.836 0 Z" style="transform-origin: 90.495px 491.121px; fill: url(#color-2);" transform="matrix(0.999544, -0.030186, 0.018368, 0.999901, 279.920201, 0.831767)" bx:shape="ring 89.646 491.121 23.418 23.189 33.754 38.004 1@99b8d5e0"/>
    <path d="M 89.646 491.121 m -34.063 0 a 34.063 38.004 0 1 0 68.126 0 a 34.063 38.004 0 1 0 -68.126 0 Z M 89.646 491.121 m -24.103 0 a 24.103 26.604 0 0 1 48.206 0 a 24.103 26.604 0 0 1 -48.206 0 Z" style="transform-origin: 90.495px 491.121px; fill: url(#color-2);" transform="matrix(0.999544, -0.030186, 0.018368, 0.999901, 426.533973, 1.685989)" bx:shape="ring 89.646 491.121 24.103 26.604 34.063 38.004 1@5caa1663"/>
    <path d="M 89.646 491.121 m -33.754 0 a 33.754 38.004 0 1 0 67.508 0 a 33.754 38.004 0 1 0 -67.508 0 Z M 89.646 491.121 m -26.238 0 a 26.238 23.189 0 0 1 52.476 0 a 26.238 23.189 0 0 1 -52.476 0 Z" style="transform-origin: 90.495px 491.121px; fill: url(#color-2);" transform="matrix(0.999544, -0.030186, 0.018368, 0.999901, 557.93049, 0.831861)" bx:shape="ring 89.646 491.121 26.238 23.189 33.754 38.004 1@6e4189c6"/>
  </g>
  <g>
    <title>mic</title>
    <g stroke-linecap="round" transform="matrix(1, 0, 0, 1, 485.847725, 151.6785)">
      <path d="M4.51 -0.24 C5.32 -0.12, 5.86 1.72, 6.28 2.77 C6.7 3.82, 6.93 4.79, 7.02 6.07 C7.1 7.34, 7.33 9.04, 6.8 10.41 C6.28 11.79, 4.53 13.95, 3.87 14.34 C3.21 14.74, 3.37 13.62, 2.84 12.78 C2.32 11.93, 1.07 10.48, 0.72 9.27 C0.36 8.06, 0.44 7.02, 0.71 5.52 C0.98 4.02, 1.7 1.16, 2.32 0.27 C2.94 -0.61, 3.91 -0.1, 4.43 0.22 C4.95 0.53, 5.41 2.08, 5.44 2.16 M4.13 1.75 C4.93 2.29, 7.06 2.07, 7.59 3.27 C8.12 4.47, 7.53 7.58, 7.29 8.94 C7.06 10.31, 6.83 10.65, 6.19 11.46 C5.55 12.27, 4.54 13.6, 3.46 13.81 C2.38 14.03, 0.46 13.61, -0.29 12.76 C-1.05 11.91, -1.37 10.35, -1.08 8.72 C-0.78 7.1, 0.75 4.39, 1.46 3 C2.18 1.62, 2.77 0.95, 3.22 0.43 C3.68 -0.1, 4.14 -0.09, 4.18 -0.14 C4.22 -0.19, 3.19 -0.27, 3.45 0.14" stroke="none" stroke-width="0" style="fill: url(#color-3);"/>
      <path d="M2.02 1.69 C2.65 0.93, 3.52 -0.63, 4.11 -0.52 C4.7 -0.42, 5.19 1.11, 5.56 2.31 C5.93 3.52, 6.27 4.98, 6.33 6.7 C6.38 8.41, 6.32 11.36, 5.9 12.59 C5.47 13.81, 4.48 13.84, 3.77 14.05 C3.06 14.26, 2.38 14.6, 1.65 13.84 C0.92 13.09, -0.48 11.02, -0.62 9.51 C-0.75 8, 0.32 6.38, 0.83 4.77 C1.35 3.17, 2.26 0.63, 2.46 -0.12 C2.66 -0.86, 1.95 0.04, 2.02 0.3 M5.37 1.13 C6.04 1.44, 6.8 2.76, 6.9 4.14 C7 5.53, 6.34 8.17, 5.97 9.44 C5.59 10.7, 5.31 10.75, 4.65 11.71 C3.99 12.67, 2.4 15.29, 2.01 15.19 C1.61 15.08, 2.8 12.19, 2.26 11.09 C1.73 9.99, -0.84 9.6, -1.19 8.57 C-1.55 7.54, -0.41 6.3, 0.12 4.9 C0.66 3.5, 1.18 1.03, 2.01 0.17 C2.83 -0.69, 4.78 -0.11, 5.08 -0.27 C5.38 -0.42, 3.81 -1.09, 3.82 -0.76" stroke-width="4" style="fill: url(#color-3); stroke: url(#color-3);"/>
    </g>
    <g stroke-linecap="round" transform="matrix(1, 0, 0, 1, 23.749705, -79.054513)">
      <g transform="translate(455.59090900245906 246.84173661445612) rotate(0 8.568500328623145 1.8316835725904923)">
        <path d="M-0.13 -0.21 C1.6 0.34, 6.99 4.71, 10.15 4.41 C13.3 4.11, 17.17 -1.19, 18.8 -2 M-1.66 -1.37 C-0.02 -0.15, 6.22 5.64, 9.46 5.66 C12.7 5.69, 15.94 0.17, 17.78 -1.23" stroke-width="4" fill="none" style="stroke: url(#color-3);"/>
      </g>
    </g>
    <g stroke-linecap="round" transform="matrix(1, 0, 0, 1, 23.749705, -79.054513)" style="">
      <g transform="translate(459.14167063696664 256.4175748081824) rotate(0 5.438101136157684 0.42785755192403485)">
        <path d="M0.2 0.76 C2.09 0.93, 9.94 1.31, 12.03 1.19 M-1.15 0.11 C0.48 -0.04, 8.6 -0.52, 10.8 -0.3" stroke-width="4" fill="none" style="stroke: url(#color-3);"/>
      </g>
    </g>
  </g>
  <g>
    <title>Upper Left Peaks</title>
    <g stroke-linecap="round" transform="matrix(1, 0, 0, 1, 23.749705, -79.054513)" style="">
      <g transform="translate(237.84941512401997 134.33327738444007) rotate(0 -36.15030446503192 35.15434230818204)">
        <path d="M1.02 1.19 C-21.16 20.34, -39.85 38.68, -73.32 69.16 M-0.93 0.92 C-25.43 25.06, -51.92 51.36, -71.57 70.66 M-72.48 68.84 C-70.62 49.76, -69.75 27.37, -71.59 0.12 M-71.52 69.78 C-70.47 43.2, -70.63 16.49, -71.87 -0.35" fill="none" style="stroke: url(#color-4); stroke-width: 2px;"/>
      </g>
    </g>
    <g stroke-linecap="round" transform="matrix(1, 0, 0, 1, 23.749705, -79.054513)" style="">
      <g transform="translate(237.39983555584877 133.17895033504703) rotate(0 -36.52315408218533 35.533437190118946)">
        <path d="M-1.14 1.61 C-14.51 14.73, -31.16 29.41, -70.82 70.98 M-0.99 0.56 C-15.72 15.92, -33.74 31.92, -72.06 70.14 M-70.81 71.18 C-71.39 44.02, -72.29 19.88, -71.35 1.23 M-71.44 70.94 C-71.82 52.95, -72.11 36.46, -71.92 -0.12" fill="none" style="stroke: url(#color-4); stroke-width: 2px;"/>
      </g>
    </g>
    <g stroke-linecap="round" transform="matrix(1, 0, 0, 1, 23.749705, -79.054513)" style="">
      <g transform="translate(277.0755839943482 134.49545963684722) rotate(0 -16.48153525084132 15.220075345207363)">
        <path d="M-1.88 -1.46 C-9.67 5.92, -16.57 17.17, -33.19 29.52 M0.6 0.44 C-8.68 7.97, -16.65 16.59, -32.47 31.9 M-33.56 29.52 C-32.4 20.64, -30.81 11.92, -30.47 0.07 M-32.09 31.38 C-32.17 22.05, -32.8 14.03, -31.59 -0.8" fill="none" style="stroke: url(#color-4); stroke-width: 2px;"/>
      </g>
    </g>
    <g stroke-linecap="round" transform="matrix(1, 0, 0, 1, 23.749705, -79.054513)" style="">
      <g transform="translate(162.64955550487934 133.93329874674475) rotate(0 -75.60316620583615 73.97737699562427)">
        <path d="M 1.44 1.28 C -39.05 39.06 -77.249 78.29 -151.039 147.64 M -0.18 0.32 C -48.17 47.13 -95.544 93.551 -150.214 146.271" fill="none" style="stroke: url(#color-4); stroke-width: 2px;"/>
      </g>
    </g>
  </g>
  <g stroke-linecap="round" transform="matrix(1, 0, 0, 1, 35.198704, 52.478497)" style="">
    <title>Outline</title>
    <path d="M32 0 M32 0 C162.42 2.14, 292.13 0.97, 633.6 0 M32 0 C156.48 0.18, 282.04 0.43, 633.6 0 M633.6 0 C654.19 -0.85, 666.35 9.47, 665.6 32 M633.6 0 C657.01 0.47, 666.44 8.5, 665.6 32 M665.6 32 C667.95 149.3, 667.85 269.04, 665.6 490.4 M665.6 32 C665.06 155.32, 665.06 278.36, 665.6 490.4 M665.6 490.4 C667.58 512.6, 655.97 522.41, 633.6 522.4 M665.6 490.4 C666.64 512.72, 657.21 522.75, 633.6 522.4 M633.6 522.4 C445.35 522.17, 256.36 522.66, 32 522.4 M633.6 522.4 C455.3 523.91, 276.43 524.31, 32 522.4 M32 522.4 C12.2 521.8, 1.4 513.36, 0 490.4 M32 522.4 C11.06 524.58, -0.43 512.99, 0 490.4 M0 490.4 C1.65 343.31, 0.42 197.69, 0 32 M0 490.4 C-1.08 387.15, -1.24 283.95, 0 32 M0 32 C0.39 11.39, 9.64 0.84, 32 0 M0 32 C-2.08 12.56, 9.44 1.5, 32 0" stroke-width="4" fill="none" style="stroke: url(#color-5);"/>
  </g>
  <g>
    <title>Pins Labels - Drawn</title>
    <path style="stroke: url(#color-5); stroke-width: 3px; fill: none;" d="M 84.173 534.489 C 75.354 536.694 79.931 556.552 88.604 552.214 C 92.44 550.296 94.102 537.973 90.619 534.489 C 89.734 533.604 81.353 533.79 81.353 534.892">
      <title>0</title>
    </path>
    <path style="fill: none; stroke: url(#gradient-0); stroke-width: 3px;" d="M 216.308 540.129 C 217.133 539.579 221.755 535.907 221.948 536.1 C 224.114 538.266 221.948 554.048 221.948 557.451">
      <title>1</title>
    </path>
    <path style="fill: none; stroke: url(#gradient-1); stroke-width: 3px;" d="M 364.557 536.906 C 377.906 536.906 372.647 542.513 366.975 548.186 C 366.593 548.568 362.659 551.525 363.752 552.617 C 365.162 554.027 374.633 552.214 377.046 552.214">
      <title>2</title>
    </path>
    <g>
      <title>3V</title>
      <path style="fill: none; stroke: url(#gradient-8); stroke-width: 3px;" d="M 502.332 534.892 C 506.672 533.807 515.123 535.395 509.987 540.532 C 509.668 540.851 503.944 542.143 503.944 542.143 C 503.944 542.143 516.421 544.571 512.001 548.992 C 511.949 549.044 501.527 556.154 501.527 550.603">
        <title>3</title>
      </path>
      <path style="fill: none; stroke: url(#gradient-9); stroke-width: 3px;" d="M 516.432 534.086 C 516.432 539.236 519.019 549.564 522.475 553.02 C 522.855 553.4 524.957 549.667 525.295 548.992 C 527.062 545.457 528.92 538.796 528.92 535.295">
        <title>V</title>
      </path>
    </g>
    <g>
      <title>GND</title>
      <path style="fill: none; stroke: url(#gradient-18); stroke-width: 3px;" d="M 636.072 536.831 C 622.607 532.591 620.627 545.848 627.09 551.954 C 627.512 552.353 634.694 554.361 636.072 553.06 C 636.733 552.435 635.681 549.834 635.681 549.003 C 635.681 548.356 636.117 545.357 635.681 544.945 C 635.087 544.384 630.757 544.945 629.823 544.945">
        <title>G</title>
      </path>
      <path style="fill: none; stroke: url(#gradient-19); stroke-width: 3px;" d="M 642.691 553.494 C 642.691 550.947 640.474 542.115 642.691 539.875 C 643.128 539.432 642.252 537.66 642.691 537.217 C 643.743 536.153 645.584 542.134 645.978 542.532 C 648.335 544.916 650.035 548.627 652.221 550.836 C 652.496 551.114 654.193 553.826 654.193 553.826 C 654.193 553.826 653.726 549.892 653.535 549.508 C 651.869 546.141 653.207 538.796 653.207 534.892">
        <title>N</title>
      </path>
      <g style="" transform="matrix(0.916717, 0, 0, 0.916895, 52.05452, 46.414403)">
        <title>D</title>
        <path style="fill: none; stroke: url(#gradient-20); stroke-width: 3px;" d="M 661.056 534.489 C 662.662 540.915 662.667 546.671 662.667 553.826"/>
        <path style="fill: none; stroke: url(#gradient-21); stroke-width: 3px;" d="M 661.861 534.489 C 667.455 534.489 671.309 533.866 674.35 536.906 C 675.75 538.306 675.558 540.656 675.558 542.949 C 675.558 551.927 670.223 552.617 661.861 552.617"/>
      </g>
    </g>
  </g>
  <g style="visibility: hidden;">
    <title>LEDs</title>
    <g stroke-linecap="round" transform="matrix(1, 0, 0, 1, 259.199711, 211.6785)">
      <path d="M0 0 C0 0, 0 0, 0 0 M0 0 C0 0, 0 0, 0 0 M0.5 13.55 C3.93 9.32, 7.42 2.73, 11.11 1.23 M0.8 11.43 C2.75 8.61, 6.67 4.6, 9.98 -0.38 M-1.37 26.01 C2.56 20.81, 8.91 12.66, 19.17 1.88 M-0.13 23.85 C5.23 17.3, 10.45 11.14, 18 4.27 M5.66 31.63 C7.18 28.35, 10.44 25.43, 17.47 15.93 M3.81 31.49 C7.55 29.19, 11.08 23.57, 17.32 15.24" stroke-width="1" fill="none" style="stroke: url(#color-6);"/>
      <path d="M0.15 0.65 C4.9 -0.67, 9.28 0.47, 12.61 0.4 M0.37 -0.47 C3.83 0.39, 7.07 -0.14, 13.23 -0.63 M15.24 -0.18 C12.57 11.63, 12.29 20.27, 13.75 29.11 M14.55 0.53 C12.63 8.36, 14.11 15.79, 14.09 28.82 M13.15 28.93 C10.92 28.97, 7.36 27.72, -0.36 27.58 M13.75 28.85 C9.87 28.8, 7.34 29.5, 0.61 29.08 M-1 30.7 C0.37 21.05, 1.25 13.24, 0.75 -0.12 M0.72 28.06 C0.49 21.51, 0.65 16.62, 0.77 0.58" stroke-width="2" fill="none" style="stroke: url(#color-6);"/>
    </g>
    <g stroke-linecap="round" transform="matrix(1, 0, 0, 1, 310.799687, 210.478488)">
      <path d="M0 0 C0 0, 0 0, 0 0 M0 0 C0 0, 0 0, 0 0 M-1.11 10.77 C2.75 7.79, 7.07 3.47, 10.81 1.08 M-0.26 11.78 C3.26 8.18, 6.18 5.13, 10.61 -0.8 M0.03 23.47 C4.78 19.03, 11.34 11.63, 19.91 4.89 M0.39 23.62 C2.73 19.66, 8.1 15.56, 17.25 4.54 M3.35 32.66 C6.85 27.84, 8.06 24.79, 17.69 17.03 M3.3 33.28 C6.31 28.6, 9.33 23.9, 19.04 15.23" stroke-width="1" fill="none" style="stroke: url(#color-6);"/>
      <path d="M1.23 1.21 C4.06 -0.86, 6.53 0.22, 12.92 1.29 M-0.48 0.26 C4.22 -0.6, 7.99 0.31, 14.09 -0.5 M14.9 1.55 C14.52 10.07, 12.48 18.64, 13.06 29.76 M13.37 -0.41 C14.19 8.75, 13.36 19.37, 14.37 28.5 M14.9 27.96 C10.6 29.18, 8.03 29.13, 0.31 30.09 M13 29 C9.69 28.87, 5 29.43, 0.57 28.28 M-0.06 27.16 C-0.98 20.66, 0.81 15.24, -1.64 1.93 M-0.98 29.4 C-1.12 22.63, -0.09 16.13, -0.4 -0.23" stroke-width="2" fill="none" style="stroke: url(#color-6);"/>
    </g>
    <g stroke-linecap="round" transform="matrix(1, 0, 0, 1, 361.998724, 211.478488)">
      <path d="M0 0 C0 0, 0 0, 0 0 M0 0 C0 0, 0 0, 0 0 M0.33 11.3 C0.66 9.19, 5.64 6.79, 9.46 1.31 M0 12.16 C2.4 9.04, 3.89 6.65, 10.46 0.48 M-0.5 25.94 C2.9 19.54, 6.43 13.02, 19.84 2.68 M0.88 23.21 C5.15 18.27, 10.54 12.34, 18.5 2.87 M1.9 32.51 C9.23 28.88, 13.23 24.95, 19.53 14.51 M4.1 31.49 C7.25 28.16, 10.58 25.32, 18.79 15.32" stroke-width="1" fill="none" style="stroke: url(#color-6);"/>
      <path d="M-0.32 -0.55 C5.53 -1.21, 8.98 0.04, 14.64 -0.4 M0.65 -0.42 C3.2 0.15, 6.62 0.12, 13.75 0.64 M11.83 0.59 C15.4 9.49, 14.68 20.55, 15.26 27.27 M13.57 -0.82 C13.28 6.1, 14.18 13.57, 12.78 29.76 M12.27 29.61 C9.45 28.82, 7.95 28.34, -0.54 28.48 M13.03 28.81 C10.32 28.28, 6.23 28.84, 0.67 28.56 M0.78 28.15 C0.21 18.83, 0.34 9.2, 0.27 -1.72 M-0.78 28.01 C-0.73 19.03, -0.24 9.2, 0.11 0.7" stroke-width="2" fill="none" style="stroke: url(#color-6);"/>
    </g>
    <g stroke-linecap="round" transform="matrix(1, 0, 0, 1, 411.599738, 210.878513)">
      <path d="M0 0 C0 0, 0 0, 0 0 M0 0 C0 0, 0 0, 0 0 M1.26 11.05 C2.77 8.65, 6.39 4.16, 9.26 0.27 M0.67 11.7 C3.68 8.93, 5.21 5.04, 10.37 0 M-1.04 24.58 C5.46 18.38, 9.14 15.27, 19.66 5.24 M-0.52 24.62 C5.92 17.97, 11.97 10.94, 18.7 3.64 M5.11 30.37 C9.73 26.7, 13.08 23.04, 16.32 15.64 M4.1 32.43 C6.91 28, 11.23 23.75, 18.52 15.47" stroke-width="1" fill="none" style="stroke: url(#color-6);"/>
      <path d="M-0.54 -0.32 C3.65 -0.99, 7.61 -1.08, 13.62 0.77 M0.67 -0.24 C3.2 -0.07, 6.32 0.25, 13.38 0.06 M13.87 -1.72 C14.36 8.61, 14.36 12.55, 12.01 27.79 M13.71 0.7 C13.51 8.15, 13.3 16.21, 13.27 28.85 M13.56 27.5 C10.46 29.22, 6.5 28.65, -0.42 28.03 M14.25 29.2 C7.85 29.45, 3.77 28.92, -0.32 28.17 M-1.46 30.48 C-1.95 21.59, 1.26 12.48, 0.31 0.14 M-0.21 29.44 C-0.5 20.36, 0.93 13.52, 0.93 -0.77" stroke-width="2" fill="none" style="stroke: url(#color-6);"/>
    </g>
    <g stroke-linecap="round" transform="matrix(1, 0, 0, 1, 466.398719, 210.878513)">
      <path d="M0 0 C0 0, 0 0, 0 0 M0 0 C0 0, 0 0, 0 0 M-0.48 12.18 C2.74 6.34, 6.99 1.66, 10.84 1.1 M-0.19 11.28 C2.81 7.85, 6.68 5.29, 10.78 -0.17 M-0.32 22.37 C3.63 16.37, 9.34 13.12, 18.24 5.39 M-0.39 24.65 C3.61 18.19, 9.84 13.08, 18.53 3.76 M4.98 32.08 C9.22 26.98, 10.1 24.43, 16.99 13.83 M3.41 31.49 C6.55 28.61, 11.4 24.55, 17.46 15.26" stroke-width="1" fill="none" style="stroke: url(#color-6);"/>
      <path d="M0.04 -0.4 C5.13 0.95, 9.42 0.75, 12.33 -0.86 M-0.15 -0.26 C4.71 0.17, 9.22 0.36, 13.12 0.07 M14.08 1.54 C12.47 8.57, 13.85 14.38, 12.79 30.74 M13.04 -0.55 C14.38 8.58, 14.45 18.17, 14.53 28.98 M12.71 28.25 C11.76 28.65, 7.15 30.27, -1.35 27.66 M14.05 29.35 C9.04 28.39, 5.75 28.22, 0.49 28.95 M1.92 28.63 C-1.23 18.72, -0.19 13.8, -0.91 -0.34 M-0.84 29.53 C-0.01 19.16, -0.23 8.02, -0.33 0.19" stroke-width="2" fill="none" style="stroke: url(#color-6);"/>
    </g>
    <g stroke-linecap="round" transform="matrix(1, 0, 0, 1, 258.598698, 257.678501)">
      <path d="M0 0 C0 0, 0 0, 0 0 M0 0 C0 0, 0 0, 0 0 M1.04 10.45 C2.4 9.48, 5.78 5.02, 10.72 -0.74 M0.02 12.73 C1.97 8.85, 4.99 6.15, 9.87 -0.33 M-1.45 22.16 C6.29 18.72, 11.77 11.63, 17 5.45 M1.24 23.73 C6.36 16.68, 10.93 11.63, 18.57 2.84 M2.91 30.85 C5.96 26.01, 12.18 22.33, 17.24 15.68 M2.7 31.74 C8.13 28.37, 12.52 22.46, 17.56 16.54" stroke-width="1" fill="none" style="stroke: url(#color-6);"/>
      <path d="M-0.75 0.79 C4.34 0.95, 10.07 1.34, 13.84 -1.2 M-0.27 0.52 C4.71 -0.25, 10.37 -0.59, 13.03 -0.04 M15.22 -1.66 C12.33 10.28, 11.84 21.14, 14.05 28.55 M13.52 -0.56 C12.92 9.77, 14.6 19.16, 13.43 29.32 M14.6 28.44 C11.41 28.03, 7.17 28.23, 0.25 28.12 M13.54 29.09 C9.04 28.25, 3.73 29.19, 0.14 28.79 M0.7 29.67 C0.72 18.67, -0.14 11.32, -1.58 1.86 M0.08 27.83 C-0.42 19.91, -0.38 12.93, 0.71 -0.09" stroke-width="2" fill="none" style="stroke: url(#color-6);"/>
    </g>
    <g stroke-linecap="round" transform="matrix(1, 0, 0, 1, 310.198705, 258.878513)">
      <path d="M0 0 C0 0, 0 0, 0 0 M0 0 C0 0, 0 0, 0 0 M-0.65 12.83 C3.79 7.56, 5.26 6.91, 10.8 -0.65 M0.38 11.73 C2.24 9.39, 4.78 7.25, 10.86 -0.81 M2.17 22.81 C3.29 20.66, 9.79 15.56, 17.49 2.84 M0.99 23.24 C6.8 15.37, 15.09 8.82, 18.92 3.97 M4.15 32.06 C7.2 27.81, 11.01 25.3, 17.7 14.65 M4.22 32.88 C9.53 25.7, 14.82 19.8, 18.72 16.27" stroke-width="1" fill="none" style="stroke: url(#color-6);"/>
      <path d="M1.06 -0.62 C3.09 0.71, 5.45 1.23, 12.46 1 M-0.34 -0.23 C3.85 -0.27, 7.83 0.13, 13.98 -0.06 M13.05 0.93 C14.13 9.85, 13.95 21.41, 12.04 29.5 M13.65 0.23 C12.95 10.82, 13.51 19, 13.22 28.88 M12.78 28.98 C11.8 28.56, 7.48 28.95, -0.56 27.51 M13.86 28.93 C10.13 28.9, 7.26 29.54, -0.2 28.22 M1.63 29.06 C1.87 21.89, 0.79 18.9, -1.32 1.14 M-0.73 29.35 C0.25 22.58, -0.58 17.96, 0.65 -0.14" stroke-width="2" fill="none" style="stroke: url(#color-6);"/>
    </g>
    <g stroke-linecap="round" transform="matrix(1, 0, 0, 1, 363.598699, 259.478489)">
      <path d="M0 0 C0 0, 0 0, 0 0 M0 0 C0 0, 0 0, 0 0 M1.59 10.7 C4.19 8.8, 6.54 2.29, 9.48 1.23 M-0.58 11.33 C3.85 7.74, 7.66 3.21, 10.21 0.4 M1.72 22.65 C5.9 19.19, 11.93 12.73, 17.1 4.22 M1.18 24.91 C5.45 17.92, 9.89 12.07, 18.31 3.84 M5.15 32.01 C7.53 26.69, 15.16 20.4, 17.64 15.18 M3.81 31.8 C8.32 28.36, 12.22 22.47, 18.96 15.52" stroke-width="1" fill="none" style="stroke: url(#color-6);"/>
      <path d="M0.59 0.65 C4.41 0.02, 10.71 -1.12, 14.86 -0.3 M-0.66 -0.44 C2.42 -0.42, 6.15 0.47, 13.54 -0.3 M12.53 -1.64 C14.44 9.97, 13.87 18.09, 13.69 29.9 M12.64 -0.66 C12.71 12.33, 13.65 23.87, 13.08 29.1 M12.25 27.88 C9.41 27.89, 3.67 28.95, -0.6 27.75 M14.19 28.45 C8.18 29.01, 3.11 28.13, -0.25 28.63 M-1.92 29.75 C0.27 24.56, -1.23 16.21, 1.74 0.3 M-0.36 29.32 C-1.06 19.66, 0.31 12.09, -0.86 -0.22" stroke-width="2" fill="none" style="stroke: url(#color-6);"/>
    </g>
    <g stroke-linecap="round" transform="matrix(1, 0, 0, 1, 413.999701, 260.478489)">
      <path d="M0 0 C0 0, 0 0, 0 0 M0 0 C0 0, 0 0, 0 0 M0.98 13.5 C4.89 8.45, 6.6 3.51, 10.19 0.5 M0.69 12.63 C3.25 7.9, 6.67 5.23, 10.34 -0.22 M-1.58 24.34 C4.01 19.61, 11.14 13.65, 16.88 5.4 M0.12 24.25 C5.7 19.35, 9.23 12.42, 18.84 4.62 M4.72 31.33 C6.41 27.57, 11.32 24.19, 19.84 17.74 M4.39 31.69 C8.28 28.06, 11.52 24.15, 18.06 15.75" stroke-width="1" fill="none" style="stroke: url(#color-6);"/>
      <path d="M-1.17 -1.31 C3.92 -1.06, 10.76 0.22, 14.74 -0.71 M0.39 -0.68 C4.03 0.66, 8.48 0.46, 13.64 -0.3 M13.33 1.72 C12.79 5.31, 14.48 11.69, 11.69 28.05 M12.74 -0.96 C13.79 8.01, 14.1 15.17, 13.11 29.67 M14.92 28.32 C10.02 27.69, 4.37 29.55, 0.8 27.63 M13.34 28.29 C9.28 28.23, 6.26 28.55, -0.3 28.78 M-1.95 27.59 C0.93 22.15, 1.7 11.56, -1.11 1.58 M-0.43 29.71 C-1.03 18.6, 0.53 7.35, -0.56 -0.72" stroke-width="2" fill="none" style="stroke: url(#color-6);"/>
    </g>
    <g stroke-linecap="round" transform="matrix(1, 0, 0, 1, 466.398719, 261.678501)">
      <path d="M0 0 C0 0, 0 0, 0 0 M0 0 C0 0, 0 0, 0 0 M-0.5 13.42 C5.24 6.74, 7.61 2.62, 11.46 -0.85 M-0.07 12.73 C3.81 8.5, 6.62 5.59, 11.2 -0.56 M1.77 23.98 C7.1 16.11, 12.82 7.23, 19.28 2.08 M0.13 23.63 C3.37 19.82, 8.5 16.75, 18.39 3.22 M4.36 30.99 C7.52 26.59, 12.74 23.96, 18.79 13.81 M2.74 31.39 C7.11 27.44, 11.13 23.87, 17.71 16.51" stroke-width="1" fill="none" style="stroke: url(#color-6);"/>
      <path d="M-0.89 -0.67 C5.91 0.1, 9.46 0.74, 14.92 -0.48 M0.33 0.4 C4.2 -0.09, 10.06 0.14, 13.34 -0.51 M12.81 -0.88 C13.29 5.88, 14.75 13.25, 11.65 27.59 M12.96 -0.55 C14.58 10.85, 14.47 20.3, 13.17 29.71 M12.45 28.04 C9.68 29.97, 8.66 30.18, 0.36 27.6 M13.5 28.91 C10.38 29.2, 7.85 28.69, -0.37 29.29 M1.05 29.51 C-0.92 22.74, -0.33 16.85, 1.05 1.82 M-0.37 28.52 C0.26 17.92, 0.28 5.81, 0.7 0.74" stroke-width="2" fill="none" style="stroke: url(#color-6);"/>
    </g>
    <g stroke-linecap="round" transform="matrix(1, 0, 0, 1, 258.598698, 307.678502)">
      <path d="M0 0 C0 0, 0 0, 0 0 M0 0 C0 0, 0 0, 0 0 M1.67 12.7 C1.88 8.86, 4.47 5.08, 11.18 -1.12 M0.55 12.31 C2.38 8.43, 5.75 5.18, 9.88 -0.8 M1.77 23.27 C5.99 20.47, 8 16.37, 19.03 3.73 M0.36 23.49 C7.59 16.77, 13.65 8.96, 18.17 4.43 M5.53 33.38 C6.35 28.65, 8.74 25.03, 16.93 15.34 M2.98 32.85 C5.97 29.44, 9.23 25.23, 18.83 15.38" stroke-width="1" fill="none" style="stroke: url(#color-6);"/>
      <path d="M-0.33 -0.58 C6.4 -1.23, 10.45 0.89, 12.45 -0.76 M0.64 0.18 C2.5 -0.7, 6.16 0.07, 13.5 0.11 M13.19 -1.09 C15.21 5.71, 14.06 15.38, 14.65 29.51 M14.2 0.53 C14.58 8.2, 13.93 14.5, 13.23 28.52 M12.29 29.75 C10.07 28.62, 3.76 28.85, 1.12 28.31 M13.7 28.17 C9.93 28.41, 6.46 29.19, 0.23 28.43 M-0.27 28.51 C0.41 18.87, 1.85 5.05, -0.79 1.72 M-0.55 29.32 C-0.32 17.21, -0.3 6.7, -0.25 0.86" stroke-width="2" fill="none" style="stroke: url(#color-6);"/>
    </g>
    <g stroke-linecap="round" transform="matrix(1, 0, 0, 1, 309.799687, 308.878514)">
      <path d="M0 0 C0 0, 0 0, 0 0 M0 0 C0 0, 0 0, 0 0 M-0.95 12.6 C5.05 7.14, 7.13 3.22, 10.69 -0.26 M0.48 11.32 C3.11 8.79, 4.95 6.61, 10.32 0.62 M-1.08 23.25 C8.92 16.84, 13.5 7.59, 17.56 5.25 M-0.22 23.08 C5.25 19.24, 8.05 13.98, 17.36 2.79 M2.79 34.13 C8.47 24.55, 15.14 21.77, 17.01 14.87 M3.75 32.38 C6.47 28.15, 9.35 26.28, 18.19 16.14" stroke-width="1" fill="none" style="stroke: url(#color-6);"/>
      <path d="M0.75 0.83 C3.28 -0.67, 6.8 -0.24, 13.93 -0.18 M0.61 -0.54 C3.62 0.51, 8.39 -0.53, 13.64 -0.37 M12.61 0.92 C12.95 11.86, 15.45 19.65, 15.56 29.04 M13.79 0.24 C14.16 10.63, 13.41 21.35, 13.02 28.3 M13.15 28.03 C8.46 28.06, 2.84 28.44, 1.19 30.11 M13.31 28.33 C9.2 28.32, 4.2 28.41, 0.24 29.15 M-0.89 28.73 C-1.6 17.28, -1.04 8.99, -1.31 1.51 M-0.3 29.65 C0.3 21.34, 0.64 14.32, 0.56 0.09" stroke-width="2" fill="none" style="stroke: url(#color-6);"/>
    </g>
    <g stroke-linecap="round" transform="matrix(1, 0, 0, 1, 363.598699, 308.878514)">
      <path d="M0 0 C0 0, 0 0, 0 0 M0 0 C0 0, 0 0, 0 0 M1.2 12.29 C2.95 7.18, 7.13 1.58, 11.78 -0.55 M-0.12 11.39 C3.65 8.99, 6.13 4.25, 9.85 0 M0.02 22.25 C4.31 20.19, 9.19 14.77, 18.25 5.12 M-0.48 23.41 C7.17 17.27, 12.59 10.31, 18.02 3.74 M2.05 32.49 C5.32 28.79, 10.08 23.6, 17.9 15.03 M4.41 31.8 C6.15 29.31, 10.22 23.6, 18.73 15.64" stroke-width="1" fill="none" style="stroke: url(#color-6);"/>
      <path d="M1.02 -0.07 C5.28 -0.05, 9.77 -0.71, 14.48 -1.11 M-0.09 -0.31 C2.38 -0.04, 6.2 0.73, 13.88 -0.33 M14.28 -1.36 C13.1 7.16, 14.18 17.56, 14.27 26.87 M12.66 -0.95 C12.81 7.71, 12.82 16.77, 13.19 29.56 M14.31 28.82 C9.98 29.55, 4.8 29.04, -0.81 29.6 M13.73 29.29 C8 29.08, 3.04 29.52, 0.35 28.71 M-1.19 28.39 C-1.47 22.54, 2.09 11.31, 1 -1.49 M0.72 28.44 C-0.08 17.39, 0.23 6.19, -0.84 0.2" stroke-width="2" fill="none" style="stroke: url(#color-6);"/>
    </g>
    <g stroke-linecap="round" transform="matrix(1, 0, 0, 1, 413.198737, 310.678502)">
      <path d="M0 0 C0 0, 0 0, 0 0 M0 0 C0 0, 0 0, 0 0 M-0.06 10.58 C2.46 9.98, 5.45 6.69, 10.84 1.09 M-0.47 11.5 C4.37 8.1, 7.41 4.03, 10.66 -0.01 M-1.36 24.22 C2.62 19.76, 8.05 13.79, 17.77 2.99 M1 23.53 C3.48 20.14, 8.34 13.53, 18.6 3.6 M4.81 33.25 C7.75 24.86, 14.61 20.05, 19.91 13.94 M4.22 31.59 C7.83 26.19, 12.69 21.77, 17.43 15.75" stroke-width="1" fill="none" style="stroke: url(#color-6);"/>
      <path d="M0.46 -0.92 C3.65 -0.65, 8.28 0.8, 14.06 -1.31 M-0.64 -0.65 C3.33 -0.2, 7.12 0.52, 13.32 0.52 M14.65 0.03 C15.23 11.06, 14.64 20.44, 12.41 29.97 M13.79 0.72 C12.6 10.78, 12.61 21.93, 14.11 28.67 M12.79 28.52 C8.72 29.97, 7.34 27.8, 0.68 27.79 M14.09 28.55 C8.11 28.73, 3.01 28.75, -0.57 28.93 M1.83 27.4 C0.65 17.6, -0.91 8.72, 1.93 0.9 M0.86 29.23 C-0.17 19.69, -0.01 11.66, -0.62 -0.45" stroke-width="2" fill="none" style="stroke: url(#color-6);"/>
    </g>
    <g stroke-linecap="round" transform="matrix(1, 0, 0, 1, 468.398719, 310.47849)">
      <path d="M0 0 C0 0, 0 0, 0 0 M0 0 C0 0, 0 0, 0 0 M-0.44 11.05 C4.87 8.31, 8.06 3.53, 9.3 1.43 M0.05 12.27 C2.77 9.01, 6.56 5.57, 10.33 -0.82 M-1.54 24.47 C8.65 18.16, 14.51 7.41, 17.36 2.23 M0.27 24.78 C4.87 18.3, 9.82 11.29, 17.77 2.79 M4.27 32.92 C5.65 27.73, 10.7 23.95, 18.15 13.98 M4.2 33.01 C7.61 28.2, 9.22 25.76, 17.48 15.01" stroke-width="1" fill="none" style="stroke: url(#color-6);"/>
      <path d="M0.8 0.88 C4.59 1.03, 9.95 1.06, 12.32 0.37 M-0.09 -0.14 C2.52 -0.28, 5.2 -0.21, 13.06 0.61 M12.11 1.8 C12.04 12.17, 14.84 22.23, 13.05 28.45 M13.8 0.77 C13.99 7.85, 14.47 16.79, 13.99 28.63 M14.21 28.95 C9.14 28.36, 7.68 29.52, -0.49 28.59 M13.29 29.33 C9.48 28.04, 6.46 28.82, -0.51 28.63 M-0.64 28.88 C-0.63 23.72, -0.37 13.46, 0.67 1.78 M0.05 28.28 C0.2 21.78, 0 13.77, -0.17 0.58" stroke-width="2" fill="none" style="stroke: url(#color-6);"/>
    </g>
    <g stroke-linecap="round" transform="matrix(1, 0, 0, 1, 258.79871, 360.878515)">
      <path d="M0 0 C0 0, 0 0, 0 0 M0 0 C0 0, 0 0, 0 0 M0.03 12.28 C1.44 9.42, 5.99 5.8, 10.76 -1.33 M-0.57 12.05 C2.39 9.9, 4.68 6.76, 10.2 0.32 M-1.52 22.37 C2.78 20.52, 9.87 16.19, 16.45 2.33 M-0.42 24.09 C6.67 16.68, 12.61 11.41, 17.54 3.42 M4.46 31.68 C6.64 27.28, 9.18 26.01, 18.52 15.99 M2.95 33.17 C9.1 27.22, 12.65 20.68, 18.09 14.97" stroke-width="1" fill="none" style="stroke: url(#color-6);"/>
      <path d="M0.05 -0.19 C2.44 0.29, 8.22 0.61, 12.38 1.24 M-0.27 0.56 C3.79 0.33, 6.34 -0.43, 13.32 0.59 M13.18 1.54 C12.26 8.98, 15.04 18.8, 11.6 30.14 M12.98 -0.91 C14.1 8.76, 13.42 17.72, 14.49 28.49 M12.85 28.2 C9.29 28.99, 6.93 29.02, 0.04 28.63 M13.65 29.07 C10.85 29.36, 8.29 29.12, 0.31 28.29 M-0.25 30.23 C-0.13 22.16, -2.09 13.7, -0.59 -1.63 M0.16 27.82 C0.11 19.6, -0.41 11.92, 0.04 0.73" stroke-width="2" fill="none" style="stroke: url(#color-6);"/>
    </g>
    <g stroke-linecap="round" transform="matrix(1, 0, 0, 1, 308.799687, 360.678503)">
      <path d="M0 0 C0 0, 0 0, 0 0 M0 0 C0 0, 0 0, 0 0 M0.99 12.67 C2.55 8.59, 4.86 4.8, 11.46 0.29 M0.79 11.45 C4.02 8.72, 7.12 3.89, 10.36 -0.05 M0.05 22.51 C2.4 19.02, 7.71 14.66, 16.11 5.07 M-0.48 23.15 C5.61 17.85, 10.09 13.58, 17.21 4.18 M3.22 31.34 C5.58 28.39, 9.38 22.41, 17.6 15.71 M4.11 33.11 C8.98 26.27, 13.5 20.57, 17.55 15.36" stroke-width="1" fill="none" style="stroke: url(#color-6);"/>
      <path d="M1.21 -0.75 C3.06 -1.37, 7.37 -0.75, 13.7 0.04 M0.4 0.05 C4.18 0.11, 8.31 0.39, 13.84 0.31 M14.54 -0.25 C14.84 6.56, 13.47 11.08, 11.9 28.21 M13.51 0.16 C12.64 6.19, 13.26 11.96, 14.41 28.84 M14.85 28.53 C7.38 29.53, 3.31 29.08, -0.69 29.5 M12.93 29.26 C8.31 29.36, 3.29 28.88, 0.59 29.39 M-1.47 28.67 C0.52 17.25, 0.22 9.81, -1.13 0.16 M-0.91 27.93 C0.29 22.59, 0.57 16.46, -0.55 -0.54" stroke-width="2" fill="none" style="stroke: url(#color-6);"/>
    </g>
    <g stroke-linecap="round" transform="matrix(1, 0, 0, 1, 364.398718, 362.078497)">
      <path d="M0 0 C0 0, 0 0, 0 0 M0 0 C0 0, 0 0, 0 0 M-1.11 13.61 C3.43 9.08, 3.76 5.18, 10.28 -0.23 M-0.15 11.51 C3.17 7.9, 5.53 5.46, 9.93 0.23 M-0.55 22.9 C6.11 16.94, 10.88 8.87, 18.31 1.83 M0.86 23.27 C4.81 19.77, 9.33 14.59, 17.91 3.02 M2.25 31.69 C8.56 28.74, 12.51 22.16, 16.66 13.97 M3.94 32.44 C5.58 29.85, 9.55 26.67, 18.62 15.47" stroke-width="1" fill="none" style="stroke: url(#color-6);"/>
      <path d="M-1.02 -0.92 C5.78 0.58, 9.45 0.91, 13.65 0.04 M-0.55 0.05 C2.3 -0.02, 5.7 -0.63, 13.53 -0.24 M15.06 -1.1 C12.17 8.69, 13.43 12.03, 14.84 28.6 M14.17 0.45 C13.08 8.49, 14.13 18.29, 14.5 27.9 M14.33 27.77 C8.83 27.92, 4.82 29.12, -0.92 28.8 M13.05 28.15 C8.43 28.19, 2.96 28.82, 0.07 29 M0.89 27.48 C0.2 17.57, -1.63 8.16, -1.63 1.04 M-0.69 29.09 C-0.84 17.52, -0.9 7.72, 0.44 -0.81" stroke-width="2" fill="none" style="stroke: url(#color-6);"/>
    </g>
    <g stroke-linecap="round" transform="matrix(1, 0, 0, 1, 415.598731, 360.078497)">
      <path d="M0 0 C0 0, 0 0, 0 0 M0 0 C0 0, 0 0, 0 0 M1.35 12.02 C2.28 8.27, 4.99 5.82, 10.02 -1.18 M-0.06 12.18 C2.34 8.02, 4.93 6.22, 9.96 0.17 M0.69 25.83 C6.93 17.1, 9.59 11.5, 19.39 5.26 M-0.44 23.29 C4.92 18.97, 7.96 14.53, 17.11 4.1 M5.64 32.12 C7.99 24.94, 13.35 22.33, 17.28 17.04 M3.9 32.5 C8.22 27.99, 13.04 22.43, 18.9 14.81" stroke-width="1" fill="none" style="stroke: url(#color-6);"/>
      <path d="M0.93 -0.89 C5.91 -1.09, 9.64 1.31, 14.78 0.73 M-0.05 0.1 C2.59 0.1, 6.57 -0.28, 13.65 -0.55 M11.85 0.03 C13.76 6.47, 14.11 10.68, 12.53 29.69 M12.71 -0.86 C12.79 7.26, 14.27 14.22, 12.84 28.11 M12.67 28.81 C9.72 27.59, 5.38 29.55, -0.59 28.41 M13.87 28.57 C10.53 28.42, 7.32 29.23, 0.14 28.88 M-1.47 30.44 C1.12 20.26, -1.53 8.68, -0.04 -1.55 M-0.79 27.99 C-0.37 17.22, -0.28 4.95, 0.68 -0.36" stroke-width="2" fill="none" style="stroke: url(#color-6);"/>
    </g>
    <g stroke-linecap="round" transform="matrix(1, 0, 0, 1, 467.599738, 361.078497)">
      <path d="M0 0 C0 0, 0 0, 0 0 M0 0 C0 0, 0 0, 0 0 M-1.22 11.48 C2.8 6.38, 8.56 2.29, 9.82 -0.63 M-0.33 11.3 C3.1 9.34, 4.27 6.11, 10.52 0.43 M0.22 25.44 C5.16 19.12, 9.98 14.69, 19.92 3.35 M0.61 23.29 C7.37 17.02, 13.2 8.83, 18.15 4.06 M3.59 32.42 C8.21 27.2, 15.76 20.41, 16.85 15.51 M4.61 32.06 C7.18 29.35, 10.44 25.27, 18.55 16.46" stroke-width="1" fill="none" style="stroke: url(#color-6);"/>
      <path d="M0.03 -1.2 C2.14 -1.07, 5.59 0.8, 14.5 1.01 M-0.43 -0.5 C2.58 -0.03, 6.38 -0.59, 13.97 0.43 M13.13 1.07 C14.3 6.72, 13.27 13.43, 12.72 29.84 M14.13 0.82 C12.9 10.05, 14.27 19.05, 12.91 28.47 M14.3 28.65 C8.48 27.84, 5.2 28.77, -0.17 27.53 M13.52 28.29 C7.96 29.07, 2.99 28.93, 0.16 28.27 M-0.05 28.34 C-0.9 16.87, 0.45 6.94, -1.35 -0.51 M0.37 29.23 C0.59 20.2, -0.24 10.94, 0.19 -0.56" stroke-width="2" fill="none" style="stroke: url(#color-6);"/>
    </g>
    <g stroke-linecap="round" transform="matrix(1, 0, 0, 1, 259.198704, 412.878516)">
      <path d="M0 0 C0 0, 0 0, 0 0 M0 0 C0 0, 0 0, 0 0 M-0.08 12.98 C2.54 9.69, 6.08 5.13, 11.71 0.32 M0.91 11.9 C4.02 7.44, 7.41 4.66, 10 0.13 M0.61 24.79 C8.29 15.67, 12.64 8.38, 18.05 3.04 M-0.37 23.96 C5.17 17.83, 12.71 11.41, 17.69 4.18 M4.56 33.78 C9.48 24.48, 12.98 18.5, 16.96 15.47 M4.15 33.03 C8.08 25.99, 13.32 21.13, 18.23 15.44" stroke-width="1" fill="none" style="stroke: url(#color-6);"/>
      <path d="M0.74 0.85 C3.5 -0.28, 7.1 -0.21, 14.33 0.53 M-0.3 0.35 C3.76 0.17, 7.51 0.45, 14.16 -0.5 M12.22 -0.67 C13.74 9.45, 15.74 23.03, 13.38 27.23 M13.47 -0.94 C14.22 5.96, 12.87 12.52, 12.85 27.87 M13.92 27.75 C9.44 28.29, 3.19 28.81, -0.32 28.11 M13.14 28.63 C10.83 29.07, 7.52 28.93, 0.29 29.32 M0.38 27.68 C-0.75 18.77, -0.64 11.78, 1.64 -0.47 M-0.99 29.68 C-0.63 19.91, 0.3 9.65, 0.71 0.21" stroke-width="2" fill="none" style="stroke: url(#color-6);"/>
    </g>
    <g stroke-linecap="round" transform="matrix(1, 0, 0, 1, 310.799687, 409.27851)">
      <path d="M0 0 C0 0, 0 0, 0 0 M0 0 C0 0, 0 0, 0 0 M-0.01 11.79 C4.24 7.2, 7.81 2.48, 9.04 -0.6 M-0.3 12.7 C2.4 9.65, 4.45 6.27, 9.88 0.01 M1.99 22.81 C2.86 21.3, 9.73 16.17, 19.93 2.16 M1.17 24.82 C4.62 19.17, 7.61 15.79, 17.37 3.73 M1.86 30.74 C8.58 29.21, 10.18 24.5, 18.76 17.6 M4.21 32.41 C6.54 29.41, 9.97 24.48, 18.83 16.25" stroke-width="1" fill="none" style="stroke: url(#color-6);"/>
      <path d="M-1.1 0.51 C4.32 0.96, 7.45 -0.17, 12.68 0.26 M-0.22 0.06 C3.88 -0.06, 6.76 -0.4, 13 -0.67 M13.77 -1.71 C14.78 11.61, 15.11 23.39, 13.04 27.01 M12.87 -0.84 C13.45 8.12, 13.01 18.12, 13.05 28.29 M14.16 28.01 C8.76 30.19, 6.3 28.38, -1.28 28.61 M13.53 28.78 C9.19 29.04, 3.95 29.12, 0.38 29.46 M1.79 29.49 C-1.8 21.09, 1.4 11.22, 0.68 0.35 M-0.64 28.75 C-0.13 18.81, 0.18 10.35, -0.09 -0.63" stroke-width="2" fill="none" style="stroke: url(#color-6);"/>
    </g>
    <g stroke-linecap="round" transform="matrix(1, 0, 0, 1, 361.799688, 412.27851)">
      <path d="M0 0 C0 0, 0 0, 0 0 M0 0 C0 0, 0 0, 0 0 M1.52 13.6 C0.99 8.26, 3.31 7.61, 12.08 1.14 M0.93 11.55 C3.55 7.81, 6.12 5, 9.9 -0.68 M0.65 24.73 C8.41 15.19, 13.61 8.65, 19.04 3.82 M-0.37 24.8 C5.51 18.75, 8.92 12.6, 17 4.08 M2.88 31.13 C9.34 26.39, 10.82 22.67, 19.3 14.06 M2.69 31.72 C6.93 27.68, 11.3 23.87, 18.32 14.89" stroke-width="1" fill="none" style="stroke: url(#color-6);"/>
      <path d="M0.69 -0.38 C3.83 -0.03, 11.05 0.94, 12.6 -1.15 M0.32 -0.38 C3.26 -0.15, 6.61 0.38, 13.88 -0.4 M12.9 -1.89 C13.61 7.13, 13.05 13.22, 13.41 28.75 M13.94 0.56 C14.64 10.41, 14.45 20.25, 14.5 29.15 M12.69 29.27 C10.83 29.39, 8.35 28.52, -0.87 28.74 M14.19 28.74 C9.04 28.77, 4.77 29.21, 0.53 29.43 M1.24 29.21 C0.75 22.43, 0.42 11.51, -1.28 -1.53 M-0.52 28.55 C0.51 22.49, -0.47 13.99, -0.09 -0.15" stroke-width="2" fill="none" style="stroke: url(#color-6);"/>
    </g>
    <g stroke-linecap="round" transform="matrix(1, 0, 0, 1, 415.598731, 407.878516)">
      <path d="M0 0 C0 0, 0 0, 0 0 M0 0 C0 0, 0 0, 0 0 M-0.31 10.48 C4.39 7.7, 6.56 5.03, 9.99 -1.01 M0.12 12.52 C3.42 7.11, 8.67 3.4, 9.84 -0.54 M-0.91 24.5 C3.99 17.17, 10.38 10.03, 17.27 5.18 M0.74 24.79 C6.53 17.34, 13.24 10.05, 18.68 3.56 M5.05 31.22 C8.86 29.19, 10.69 23.58, 16.54 14.33 M2.74 32.02 C9.77 26.75, 13.75 20.92, 17.56 16.52" stroke-width="1" fill="none" style="stroke: url(#color-6);"/>
      <path d="M-1.27 1.22 C5.87 -1.18, 11.08 1, 12.69 0.47 M-0.2 -0.44 C4.28 -0.05, 8.4 0.16, 14.19 -0.06 M14.68 1.57 C15.42 6.23, 14.51 15.03, 14.84 29.21 M12.75 -0.64 C13.04 9.33, 13.67 20.16, 13.08 28.55 M12.44 28.68 C8.67 28.89, 3.75 28.65, -0.65 27.45 M14.03 28.43 C10.56 28.73, 6.59 28.58, -0.5 28.16 M-1.62 30.53 C-1.1 18.21, 2.14 12.01, 1.73 1.95 M0.44 29.71 C0.95 22.6, -0.01 15.17, 1 -0.61" stroke-width="2" fill="none" style="stroke: url(#color-6);"/>
    </g>
    <g stroke-linecap="round" transform="matrix(1, 0, 0, 1, 465.599738, 409.27851)">
      <path d="M0 0 C0 0, 0 0, 0 0 M0 0 C0 0, 0 0, 0 0 M-0.43 13.22 C3.94 7.68, 7.04 6.44, 11.77 -0.46 M0.69 11.93 C3.61 7.25, 7.2 3.47, 10.18 0.61 M-1.3 22.66 C7.42 18.03, 13.3 8.47, 17.31 5.68 M-0.29 24.86 C6.84 17.65, 12.99 9.79, 18.83 3.32 M2.45 33.3 C9.15 26.63, 12.72 23.95, 16.79 15.23 M4.29 33.02 C6.92 28.26, 11.31 23.44, 18.21 16.41" stroke-width="1" fill="none" style="stroke: url(#color-6);"/>
      <path d="M0.84 0.28 C4.28 0.88, 7.74 -1.25, 12.73 -1.04 M-0.35 -0.17 C3.62 0.41, 6.25 -0.62, 13.54 -0.11 M12.64 -1.99 C12.81 7.21, 12.62 19.21, 12.52 30.46 M12.86 -0.94 C13.74 8.01, 13.1 16.41, 14.46 28.17 M14.78 30.12 C9.68 27.85, 6.89 29.46, 1.23 29.8 M14.28 28.38 C9.26 28.31, 4.22 29.22, -0.62 28.25 M0.38 29.45 C1.71 16.81, 0.53 7.23, 1.06 0.12 M-0.64 29.52 C0.32 21.15, -1.14 12.69, -0.98 0.38" stroke-width="2" fill="none" style="stroke: url(#color-6);"/>
    </g>
  </g>
  <g style="">
    <title>mb logo</title>
    <g stroke-linecap="round" transform="matrix(1, 0, 0, 1, 387.199713, 143.678499)">
      <path d="M5.15 0.16 C6.16 -0.09, 7.77 0.14, 8.4 0.64 C9.04 1.13, 8.9 2.28, 8.97 3.15 C9.05 4.02, 9.08 4.81, 8.84 5.85 C8.59 6.89, 8.25 8.83, 7.52 9.39 C6.79 9.95, 5.56 9.48, 4.44 9.21 C3.32 8.93, 1.66 8.59, 0.77 7.73 C-0.12 6.86, -0.97 5.14, -0.9 4.02 C-0.83 2.9, 0.29 1.62, 1.21 1.03 C2.13 0.44, 3.98 0.78, 4.61 0.48 C5.24 0.18, 5.01 -0.86, 4.97 -0.77 M5.95 0.62 C6.92 0.71, 7.36 0.15, 7.85 0.75 C8.34 1.35, 8.75 3.08, 8.89 4.23 C9.04 5.38, 9.39 6.63, 8.72 7.65 C8.04 8.67, 6.15 10.01, 4.83 10.34 C3.51 10.66, 1.76 10.06, 0.78 9.61 C-0.2 9.16, -0.8 8.76, -1.04 7.64 C-1.28 6.52, -1.07 4.32, -0.66 2.9 C-0.25 1.47, 0.19 -0.27, 1.45 -0.91 C2.7 -1.55, 6.38 -1.12, 6.87 -0.96 C7.36 -0.8, 4.34 -0.33, 4.4 0.05" stroke="none" stroke-width="0" style="fill: url(#color-2);"/>
      <path d="M4.84 -0.45 C5.99 -0.58, 7.47 0.86, 8.35 1.63 C9.23 2.41, 10.02 3.49, 10.12 4.19 C10.21 4.88, 9.51 5.17, 8.91 5.82 C8.31 6.47, 7.31 7.42, 6.53 8.09 C5.74 8.76, 5.21 9.96, 4.18 9.84 C3.15 9.72, 0.97 8.32, 0.36 7.36 C-0.25 6.4, 0.44 5, 0.52 4.08 C0.59 3.17, 0.12 2.57, 0.81 1.87 C1.5 1.17, 3.97 0.01, 4.67 -0.12 C5.38 -0.25, 5.06 1.13, 5.07 1.07 M5.23 0.68 C6.46 0.28, 7.84 -0.8, 8.63 -0.22 C9.42 0.36, 9.77 2.9, 9.98 4.16 C10.19 5.42, 10.29 6.29, 9.88 7.36 C9.47 8.42, 8.65 10.3, 7.52 10.58 C6.38 10.85, 4.38 9.46, 3.06 9 C1.73 8.55, 0.29 8.52, -0.44 7.85 C-1.17 7.18, -1.82 6.28, -1.32 4.98 C-0.82 3.68, 1.67 0.81, 2.57 0.05 C3.46 -0.71, 3.77 0.54, 4.07 0.39 C4.36 0.24, 4.06 -0.84, 4.34 -0.86" stroke-width="4" style="fill: url(#color-2); stroke: url(#color-2);"/>
    </g>
    <g stroke-linecap="round" transform="matrix(1, 0, 0, 1, 340.599706, 143.27849)">
      <path d="M3.31 -0.38 C4.27 -0.65, 6.26 -0.35, 7.26 0.36 C8.26 1.07, 9.01 2.97, 9.33 3.88 C9.65 4.79, 9.62 4.85, 9.18 5.81 C8.73 6.77, 7.5 9.1, 6.66 9.62 C5.83 10.14, 5.2 9.26, 4.16 8.94 C3.12 8.63, 1.08 8.57, 0.44 7.75 C-0.2 6.93, 0.32 5.15, 0.34 4.03 C0.35 2.91, -0.23 1.68, 0.53 1.05 C1.29 0.43, 3.94 0.47, 4.89 0.3 C5.85 0.13, 6.12 0.17, 6.28 0.05 M4.98 0.11 C5.96 -0.18, 6.63 -0.09, 7.56 0.58 C8.5 1.25, 10.73 2.88, 10.6 4.12 C10.47 5.36, 7.42 6.98, 6.77 8.01 C6.12 9.04, 7.49 10.3, 6.71 10.28 C5.92 10.25, 3.13 8.49, 2.09 7.87 C1.06 7.25, 0.83 7.32, 0.49 6.56 C0.16 5.79, -0.45 4.18, 0.08 3.29 C0.6 2.4, 2.64 1.68, 3.65 1.2 C4.65 0.72, 5.6 0.72, 6.12 0.42 C6.64 0.11, 6.57 -0.49, 6.77 -0.64" stroke="none" stroke-width="0" style="fill: url(#color-2);"/>
      <path d="M6.16 -0.44 C7.16 -0.21, 7.45 1.18, 8.04 2.03 C8.63 2.89, 9.62 3.55, 9.7 4.69 C9.79 5.83, 9.22 8.22, 8.56 8.86 C7.9 9.5, 6.8 8.58, 5.74 8.54 C4.69 8.5, 3.08 8.89, 2.23 8.63 C1.37 8.37, 0.85 7.77, 0.6 6.98 C0.36 6.18, 0.56 4.85, 0.74 3.85 C0.92 2.85, 0.71 1.52, 1.68 0.99 C2.64 0.47, 5.67 0.7, 6.55 0.69 C7.43 0.68, 6.9 1, 6.97 0.94 M2.78 0.67 C4.15 0.2, 7.43 -1.11, 8.47 -0.61 C9.51 -0.11, 8.9 2.65, 9.02 3.68 C9.13 4.72, 9.28 4.76, 9.18 5.62 C9.07 6.47, 9.39 8.29, 8.37 8.8 C7.35 9.32, 4.34 8.72, 3.06 8.71 C1.79 8.69, 1.14 9.2, 0.73 8.73 C0.32 8.25, 0.47 6.84, 0.59 5.87 C0.71 4.91, 0.9 4.02, 1.43 2.94 C1.97 1.85, 3.46 -0.07, 3.82 -0.62 C4.18 -1.17, 3.77 -0.71, 3.6 -0.36" stroke-width="4" style="fill: url(#color-2); stroke: url(#color-2);"/>
    </g>
    <g transform="matrix(0.004984, 0.999987, -0.999987, 0.004984, 368.580145, 122.096193)" stroke="none">
      <path d="M -2.65,-3.35 Q -2.65,-3.35 -2.65,-4.64 -2.65,-5.93 -2.67,-7.13 -2.68,-8.32 -2.75,-9.87 -2.81,-11.42 -2.87,-12.83 -2.93,-14.24 -2.98,-15.42 -3.03,-16.59 -3.08,-17.72 -3.12,-18.85 -3.15,-19.98 -3.19,-21.10 -3.23,-22.62 -3.28,-24.13 -3.30,-25.24 -3.32,-26.34 -3.36,-27.64 -3.39,-28.94 -3.07,-30.42 -2.75,-31.91 -2.18,-33.72 -1.60,-35.54 -0.56,-37.64 0.47,-39.75 1.72,-41.63 2.97,-43.50 3.99,-45.14 5.01,-46.78 6.08,-47.85 7.16,-48.91 9.03,-49.94 10.90,-50.96 11.96,-51.54 13.02,-52.12 14.36,-52.77 15.70,-53.42 16.82,-53.62 17.93,-53.82 19.31,-53.87 20.68,-53.92 21.82,-54.20 22.97,-54.49 25.22,-54.31 27.47,-54.13 28.98,-54.04 30.49,-53.96 31.58,-53.58 32.67,-53.21 33.93,-52.91 35.20,-52.61 36.34,-52.20 37.48,-51.78 38.56,-51.24 39.64,-50.70 41.01,-49.33 42.38,-47.96 43.93,-46.45 45.48,-44.95 46.51,-43.34 47.54,-41.73 48.16,-40.68 48.78,-39.63 49.51,-38.06 50.24,-36.48 50.88,-34.94 51.52,-33.39 51.84,-31.98 52.17,-30.57 52.46,-29.23 52.75,-27.89 53.06,-26.40 53.37,-24.92 53.43,-23.53 53.49,-22.15 53.50,-20.97 53.51,-19.79 53.76,-18.22 54.01,-16.65 54.09,-15.18 54.16,-13.70 54.17,-12.33 54.18,-10.96 54.19,-9.69 54.19,-8.42 54.20,-7.28 54.21,-6.15 54.51,-3.90 54.82,-1.66 54.77,-1.06 54.72,-0.47 54.48,0.07 54.24,0.61 53.84,1.06 53.44,1.50 52.92,1.79 52.40,2.08 51.82,2.20 51.23,2.31 50.64,2.22 50.05,2.14 49.52,1.87 48.98,1.61 48.56,1.19 48.14,0.76 47.88,0.23 47.61,-0.30 47.54,-0.89 47.46,-1.48 47.57,-2.07 47.69,-2.65 47.98,-3.17 48.28,-3.69 48.72,-4.09 49.17,-4.48 49.71,-4.72 50.26,-4.95 50.86,-5.00 51.45,-5.04 52.03,-4.90 52.61,-4.75 53.11,-4.43 53.61,-4.11 53.98,-3.64 54.36,-3.17 54.56,-2.61 54.77,-2.05 54.78,-1.46 54.79,-0.86 54.62,-0.29 54.44,0.27 54.09,0.75 53.74,1.24 53.26,1.58 52.77,1.93 52.20,2.10 51.63,2.27 51.03,2.26 50.44,2.24 49.88,2.03 49.32,1.82 48.85,1.45 48.39,1.07 48.07,0.57 47.75,0.07 47.61,-0.50 47.47,-1.08 47.47,-1.08 47.47,-1.08 47.17,-3.62 46.87,-6.15 46.88,-7.28 46.88,-8.42 46.89,-9.68 46.90,-10.95 46.90,-12.27 46.90,-13.59 46.94,-14.74 46.98,-15.89 46.65,-17.82 46.31,-19.75 46.30,-20.85 46.29,-21.94 46.31,-23.05 46.34,-24.15 45.97,-25.54 45.59,-26.92 45.33,-27.98 45.06,-29.04 44.80,-30.23 44.54,-31.43 44.11,-32.50 43.68,-33.58 43.18,-34.65 42.68,-35.73 42.08,-36.79 41.49,-37.86 40.95,-38.81 40.41,-39.77 39.59,-40.76 38.77,-41.75 37.96,-42.81 37.15,-43.87 35.82,-44.63 34.50,-45.40 33.32,-45.87 32.14,-46.35 31.09,-46.67 30.04,-46.98 28.65,-47.03 27.27,-47.09 25.67,-47.35 24.08,-47.60 22.07,-47.29 20.05,-46.98 18.82,-46.98 17.59,-46.99 16.22,-46.23 14.86,-45.46 13.74,-45.03 12.62,-44.60 11.18,-43.69 9.75,-42.77 9.26,-41.46 8.77,-40.14 8.01,-39.38 7.25,-38.62 6.78,-37.62 6.32,-36.61 5.85,-35.64 5.38,-34.67 4.96,-33.62 4.53,-32.57 3.96,-30.75 3.39,-28.94 3.36,-27.64 3.32,-26.34 3.30,-25.24 3.28,-24.13 3.23,-22.62 3.19,-21.10 3.15,-19.98 3.12,-18.85 3.08,-17.72 3.03,-16.59 2.98,-15.42 2.93,-14.24 2.87,-12.83 2.81,-11.42 2.75,-9.87 2.68,-8.32 2.67,-7.13 2.65,-5.93 2.65,-4.64 2.65,-3.35 2.61,-3.04 2.57,-2.72 2.46,-2.42 2.34,-2.12 2.16,-1.86 1.98,-1.59 1.74,-1.38 1.50,-1.17 1.22,-1.02 0.94,-0.87 0.63,-0.80 0.31,-0.72 -0.00,-0.72 -0.32,-0.72 -0.63,-0.80 -0.94,-0.87 -1.22,-1.02 -1.50,-1.17 -1.74,-1.38 -1.98,-1.59 -2.16,-1.86 -2.35,-2.12 -2.46,-2.42 -2.57,-2.72 -2.61,-3.04 -2.65,-3.35 -2.65,-3.35 L -2.65,-3.35 Z" style="fill: url(#color-2);"/>
    </g>
    <g transform="matrix(0.029104, -0.999576, 0.999576, 0.029104, 371.07282, 173.036517)" stroke="none">
      <path d="M -2.64,0.59 Q -2.64,0.59 -2.63,-0.80 -2.62,-2.19 -2.62,-3.49 -2.63,-4.78 -2.70,-6.45 -2.76,-8.13 -2.83,-9.66 -2.89,-11.19 -2.94,-12.46 -2.99,-13.74 -3.04,-14.96 -3.08,-16.18 -3.12,-17.40 -3.16,-18.62 -3.20,-20.26 -3.25,-21.90 -3.27,-23.09 -3.29,-24.29 -3.33,-25.69 -3.37,-27.10 -3.05,-28.61 -2.74,-30.13 -2.15,-32.09 -1.56,-34.05 -0.48,-36.32 0.60,-38.59 1.07,-39.56 1.54,-40.53 2.34,-41.55 3.14,-42.58 4.17,-44.35 5.20,-46.12 6.30,-47.26 7.40,-48.40 9.31,-49.51 11.23,-50.62 12.33,-51.25 13.43,-51.88 14.81,-52.58 16.18,-53.28 17.33,-53.50 18.48,-53.72 19.89,-53.77 21.31,-53.83 22.48,-54.13 23.66,-54.44 25.99,-54.25 28.31,-54.05 29.87,-53.96 31.43,-53.87 32.55,-53.47 33.66,-53.06 34.97,-52.74 36.28,-52.41 37.45,-51.97 38.62,-51.52 39.73,-50.94 40.83,-50.35 42.22,-48.90 43.60,-47.45 44.41,-46.75 45.21,-46.06 46.00,-45.15 46.78,-44.23 47.83,-42.51 48.88,-40.79 49.54,-39.61 50.20,-38.44 50.93,-36.75 51.67,-35.07 52.32,-33.40 52.98,-31.73 53.30,-30.27 53.61,-28.80 53.91,-27.35 54.21,-25.89 54.53,-24.29 54.85,-22.68 54.91,-21.21 54.97,-19.74 54.98,-18.47 54.99,-17.20 55.25,-15.47 55.51,-13.73 55.58,-12.62 55.64,-11.51 55.66,-10.21 55.69,-8.92 55.68,-7.77 55.68,-6.62 55.69,-5.34 55.70,-4.06 55.71,-2.84 55.72,-1.62 56.03,0.42 56.34,2.46 56.29,3.05 56.24,3.64 56.00,4.18 55.77,4.72 55.37,5.16 54.97,5.60 54.45,5.89 53.94,6.18 53.35,6.28 52.77,6.39 52.19,6.31 51.60,6.22 51.07,5.96 50.54,5.69 50.13,5.27 49.71,4.85 49.45,4.32 49.19,3.78 49.12,3.20 49.04,2.61 49.16,2.03 49.27,1.45 49.57,0.94 49.86,0.42 50.31,0.03 50.75,-0.35 51.29,-0.58 51.84,-0.81 52.43,-0.85 53.02,-0.90 53.59,-0.75 54.17,-0.61 54.66,-0.28 55.16,0.03 55.53,0.49 55.89,0.96 56.09,1.51 56.29,2.07 56.31,2.66 56.32,3.25 56.14,3.82 55.96,4.38 55.61,4.86 55.27,5.34 54.78,5.68 54.30,6.02 53.73,6.19 53.17,6.36 52.58,6.34 51.98,6.32 51.43,6.11 50.88,5.91 50.42,5.53 49.96,5.16 49.64,4.66 49.33,4.16 49.19,3.58 49.05,3.01 49.05,3.01 49.05,3.01 48.74,0.28 48.44,-2.43 48.45,-3.66 48.46,-4.88 48.46,-6.26 48.47,-7.63 48.47,-9.06 48.47,-10.50 48.49,-11.83 48.52,-13.16 48.19,-15.16 47.87,-17.16 47.86,-18.35 47.85,-19.54 47.85,-20.82 47.85,-22.11 47.49,-23.55 47.12,-24.98 46.85,-26.12 46.57,-27.26 46.28,-28.64 45.98,-30.02 45.55,-31.17 45.11,-32.32 44.58,-33.50 44.05,-34.69 43.43,-35.84 42.82,-36.99 42.26,-38.04 41.69,-39.09 40.84,-40.17 39.99,-41.25 39.13,-42.41 38.28,-43.57 36.91,-44.40 35.55,-45.23 34.33,-45.75 33.11,-46.27 32.02,-46.61 30.94,-46.95 29.51,-47.01 28.09,-47.06 26.45,-47.35 24.82,-47.63 22.74,-47.29 20.66,-46.95 19.39,-46.96 18.11,-46.96 16.71,-46.14 15.30,-45.31 14.14,-44.84 12.97,-44.37 11.45,-43.31 9.93,-42.24 9.44,-40.87 8.96,-39.51 8.15,-38.65 7.34,-37.79 6.87,-36.71 6.40,-35.63 5.91,-34.54 5.43,-33.46 4.99,-32.28 4.55,-31.11 3.96,-29.10 3.37,-27.10 3.33,-25.69 3.29,-24.29 3.27,-23.09 3.25,-21.90 3.20,-20.26 3.16,-18.62 3.12,-17.40 3.08,-16.18 3.04,-14.96 2.99,-13.74 2.94,-12.46 2.89,-11.19 2.83,-9.66 2.76,-8.13 2.70,-6.45 2.63,-4.78 2.62,-3.49 2.62,-2.19 2.63,-0.80 2.64,0.59 2.60,0.90 2.56,1.22 2.45,1.52 2.33,1.81 2.15,2.08 1.97,2.34 1.73,2.55 1.50,2.76 1.21,2.91 0.93,3.06 0.62,3.13 0.31,3.21 -0.00,3.21 -0.31,3.21 -0.62,3.13 -0.93,3.06 -1.21,2.91 -1.50,2.76 -1.73,2.55 -1.97,2.34 -2.15,2.08 -2.33,1.81 -2.45,1.52 -2.56,1.22 -2.60,0.90 -2.64,0.59 -2.64,0.59 L -2.64,0.59 Z" style="fill: url(#color-2);"/>
    </g>
    <g stroke-linecap="round" transform="matrix(1, 0, 0, 1, 23.749705, -79.054513)">
      <g transform="translate(327.36948958691096 250.45334879557288) rotate(0 19.530051969736746 0.3999424633689159)">
        <path d="M0.2 0.77 C11.93 2.2, 19.66 -1.17, 38.23 0.38 M-0.01 0.52 C9.8 0.08, 19.75 -0.69, 39.07 -0.14" stroke-width="4" style="fill: url(#color-2); stroke: url(#color-2);"/>
      </g>
    </g>
    <g stroke-linecap="round" transform="matrix(1, 0, 0, 1, 23.749705, -79.054513)">
      <g transform="translate(337.199447382799 198.69342098064152) rotate(0 17.681061197817257 -0.06075119852974353)">
        <path d="M-0.2 -0.53 C6.01 -1.74, 13.32 -0.99, 35.56 0.6 M0.39 0.03 C7.23 0.3, 14.92 0.24, 34.07 1.01" stroke-width="4" style="fill: url(#color-2); stroke: url(#color-2);"/>
      </g>
    </g>
  </g>
  <g style="">
    <title>Pins</title>
    <g stroke-linecap="round" transform="matrix(1, 0, 0, 1, 23.749705, -79.054513)">
      <g transform="translate(13.049518883785595 589.1333414713541) rotate(0 10.20219661777935 30.719568707048893)">
        <path d="M-1.15 0.52 C3.91 -0.02, 7.28 -0.83, 20.72 1.46 M0.14 0.95 C8.33 0.41, 15.46 -0.02, 19.62 1.27 M20 -0.34 C22.15 15.46, 20.49 29.63, 20.44 61.78 M20.22 0.63 C20.48 13.48, 21.62 26.96, 21.55 60.71" stroke-width="4" fill="none" style="stroke: url(#color-5);"/>
      </g>
    </g>
    <g stroke-linecap="round" transform="matrix(1, 0, 0, 1, 23.749705, -79.054513)">
      <g transform="translate(113.84950667675434 589.9333292643229) rotate(0 -8.498100191548929 31.753818540601344)">
        <path d="M1.4 0.03 C-3.81 1.06, -7.9 -0.73, -17.17 -0.13 M0.05 -0.02 C-6.33 0.31, -13.63 0.79, -18.39 -0.76 M-15.62 1.7 C-16.01 24.04, -15.83 50.04, -15.62 63.2 M-17.49 -0.62 C-16.2 17.76, -17.01 35.12, -14.8 64.27" stroke-width="4" fill="none" style="stroke: url(#color-5);"/>
      </g>
    </g>
    <g stroke-linecap="round" transform="matrix(1, 0, 0, 1, 23.749705, -79.054513)">
      <g transform="translate(133.54761907533452 591.1795107237215) rotate(0 -8.826729319998663 32.013625927243936)">
        <path d="M-0.45 1.5 C-4.81 -0.99, -7.43 -0.15, -17.44 0.83 M-0.21 -0.59 C-5.85 -0.51, -9.67 -0.1, -17.06 -0.12 M-16.4 1.99 C-15.87 21.32, -16.53 44.74, -14.92 64.62 M-17.25 0.03 C-17.01 19.68, -15.79 41.15, -15.5 63.28" stroke-width="4" fill="none" style="stroke: url(#color-5);"/>
      </g>
    </g>
    <g stroke-linecap="round" transform="matrix(1, 0, 0, 1, 23.749705, -79.054513)">
      <g transform="translate(150.34760686830327 589.9793764463777) rotate(0 -9.215049492783976 31.39387291111052)">
        <path d="M-0.73 0.62 C-5.77 -0.14, -13.09 0.66, -17.31 -0.53 M-0.03 0.38 C-4.76 -0.65, -7.66 -0.62, -17.37 0.76 M-18.4 1.53 C-16.66 16.47, -18.43 33.26, -17.14 63.62 M-17.08 -0.83 C-16.89 17.31, -16.2 35.21, -14.82 63.08" stroke-width="4" fill="none" style="stroke: url(#color-5);"/>
      </g>
    </g>
    <g stroke-linecap="round" transform="matrix(1, 0, 0, 1, 23.749705, -79.054513)">
      <g transform="translate(165.74763128236577 591.3795229307527) rotate(0 -9.566456933745599 31.205866239964962)">
        <path d="M-0.35 1.29 C-2.84 0.48, -6.95 1.35, -18.79 -0.42 M-0.6 0.64 C-6.38 0.45, -12.42 -0.7, -17.28 -0.62 M-15.88 -1.08 C-16.55 17.27, -17.55 32.92, -15.19 63.49 M-16.88 0.5 C-15.42 19.01, -14.81 38.75, -16.13 63.07" stroke-width="4" fill="none" style="stroke: url(#color-5);"/>
      </g>
    </g>
    <g stroke-linecap="round" transform="matrix(1, 0, 0, 1, 23.749705, -79.054513)">
      <g transform="translate(245.34760686830327 590.7795473448151) rotate(0 -8.789350776824563 31.894611037221182)">
        <path d="M-1.36 -0.71 C-7.38 -1.35, -12.72 -1.33, -15.87 1.64 M0.5 0.81 C-3.68 0.06, -7.47 -0.15, -18.07 0.04 M-17.68 0.39 C-16.96 15.62, -16.71 31.37, -14.89 63.55 M-17.59 0.03 C-15.35 24.73, -16.01 48.39, -15.38 64.83" stroke-width="4" fill="none" style="stroke: url(#color-5);"/>
      </g>
    </g>
    <g stroke-linecap="round" transform="matrix(1, 0, 0, 1, 23.749705, -79.054513)">
      <g transform="translate(263.9475824542408 591.579535137784) rotate(0 -8.748143354568754 31.5869086869061)">
        <path d="M0.53 0 C-5.79 0.76, -13.91 -0.05, -17.8 0.52 M0.55 -0.35 C-4.41 0.56, -8.9 -0.45, -17.75 0 M-18.05 0.92 C-15.65 25.92, -14.12 49.78, -14 63.71 M-17.51 -0.95 C-16.83 14.39, -17.22 27.68, -14.98 64.13" stroke-width="4" fill="none" style="stroke: url(#color-5);"/>
      </g>
    </g>
    <g stroke-linecap="round" transform="matrix(1, 0, 0, 1, 23.749705, -79.054513)">
      <g transform="translate(280.5476190753345 591.1795107237215) rotate(0 -8.73628185272895 31.55585355736457)">
        <path d="M0.16 -1.68 C-2.36 0.89, -7.78 -0.17, -17.2 0.23 M0.02 -0.69 C-6.19 -0.86, -12.28 -0.54, -17.63 0.79 M-16.79 0.37 C-16.22 26.94, -15.6 50.8, -13.37 62.59 M-16.66 -0.02 C-18.13 13.35, -17.16 27.43, -14.2 64.79" stroke-width="4" fill="none" style="stroke: url(#color-5);"/>
      </g>
    </g>
    <g stroke-linecap="round" transform="matrix(1, 0, 0, 1, 23.749705, -79.054513)">
      <g transform="translate(298.5476190753345 590.9794985166902) rotate(0 -9.29313668448117 31.367334567568548)">
        <path d="M-0.15 1.6 C-7.43 -1.23, -14.53 -1.36, -18.44 0.28 M-0.43 -0.65 C-6.22 0.25, -14.38 0.59, -16.95 0.53 M-18.4 -0.38 C-16.02 19.2, -17.44 41.96, -16.07 63.25 M-17.86 0.22 C-17.15 20.15, -16.04 40.37, -15.12 63.52" stroke-width="4" fill="none" style="stroke: url(#color-5);"/>
      </g>
    </g>
    <g stroke-linecap="round" transform="matrix(1, 0, 0, 1, 23.749705, -79.054513)">
      <g transform="translate(315.3476068683033 590.7795473448152) rotate(0 -9.077200761943402 31.6272229924798)">
        <path d="M0.28 0.15 C-6.46 -0.36, -10 1, -18.43 -0.32 M0.09 -0.51 C-7.1 -0.61, -12.55 -0.06, -18.34 0.73 M-17.66 -0.96 C-18.62 21.96, -17.69 46.2, -17.13 64.22 M-18.36 -0.78 C-16.94 23.32, -15.26 46.11, -14.29 63.88" stroke-width="4" fill="none" style="stroke: url(#color-5);"/>
      </g>
    </g>
    <g stroke-linecap="round" transform="matrix(1, 0, 0, 1, 23.749705, -79.054513)">
      <g transform="translate(393.5476190753345 590.1793886534088) rotate(0 -9.00509530297154 32.42722582609508)">
        <path d="M0.81 -0.23 C-7.44 -0.9, -13.31 -0.02, -17.59 0.67 M0 -0.38 C-4.41 -0.67, -7.46 -0.06, -17.55 0.23 M-18.82 -0.4 C-15.24 21.91, -14.88 41.59, -16.69 65.32 M-18.11 1 C-16.88 13.9, -17.51 30.06, -15.05 64.93" stroke-width="4" fill="none" style="stroke: url(#color-5);"/>
      </g>
    </g>
    <g stroke-linecap="round" transform="matrix(1, 0, 0, 1, 23.749705, -79.054513)">
      <g transform="translate(410.147594661272 589.5794741026277) rotate(0 -8.98927478959456 32.24404063075781)">
        <path d="M-1.61 1.15 C-5.03 -1.45, -12.4 -0.17, -16.99 1.73 M0.53 -0.61 C-5.1 -0.67, -10.94 -0.31, -18.04 0.75 M-17.82 -1.28 C-18.43 18.84, -17.23 37.48, -14.79 65.77 M-18.5 -0.86 C-16.68 21.93, -15.49 44.83, -15.78 63.69" stroke-width="4" fill="none" style="stroke: url(#color-5);"/>
      </g>
    </g>
    <g stroke-linecap="round" transform="matrix(1, 0, 0, 1, 23.749705, -79.054513)">
      <g transform="translate(428.9475824542408 591.1795107237215) rotate(0 -8.811704114218287 31.496406869583552)">
        <path d="M-0.73 -1.58 C-3.9 -1.56, -8.54 -0.69, -16.4 -1.33 M0.51 -0.03 C-4.53 0.39, -8.25 -0.66, -18.13 0.59 M-17.21 -0.57 C-16.04 23.87, -17.76 43.68, -15.03 64.47 M-17.42 -0.99 C-17.28 17.93, -15.69 35.61, -15.82 64.58" stroke-width="4" fill="none" style="stroke: url(#color-5);"/>
      </g>
    </g>
    <g stroke-linecap="round" transform="matrix(1, 0, 0, 1, 23.749705, -79.054513)">
      <g transform="translate(445.5476190753345 590.9793764463775) rotate(0 -8.59455084216438 31.539037938455408)">
        <path d="M-0.64 -1.46 C-5.1 -1.77, -11.06 -0.28, -16.22 -0.89 M0.25 -0.05 C-4.26 0.51, -7.87 0.36, -16.99 -0.3 M-17.44 -1.2 C-16.34 18.83, -16.86 33.76, -15.85 64.58 M-17.16 0 C-17.64 18.3, -15.85 37.62, -14.48 63.03" stroke-width="4" fill="none" style="stroke: url(#color-5);"/>
      </g>
    </g>
    <g stroke-linecap="round" transform="matrix(1, 0, 0, 1, 23.749705, -79.054513)">
      <g transform="translate(460.64406972594975 591.3942913258675) rotate(0 -8.250298185068004 32.226012563332915)">
        <path d="M1.49 1.22 C-5.3 0.7, -9.32 -1.47, -16.39 0.6 M-0.63 -0.66 C-3.41 -0.71, -8.72 0.73, -17.99 -0.54 M-16.41 0.47 C-16.73 17.2, -16.23 34.23, -13.96 65.4 M-17.34 -0.95 C-16 23.06, -14.93 46.08, -15.81 63.55" stroke-width="4" fill="none" style="stroke: url(#color-5);"/>
      </g>
    </g>
    <g stroke-linecap="round" transform="matrix(1, 0, 0, 1, 23.749705, -79.054513)">
      <g transform="translate(541.844081932981 588.79431573993) rotate(0 -9.214957140830165 31.83964767307043)">
        <path d="M1.13 0.84 C-4.26 0.57, -12.8 0.86, -18.04 1.09 M-0.18 0.57 C-5.18 0.69, -8.63 0.17, -18.41 -0.66 M-19.56 -1.62 C-17.61 17.93, -17.15 32.37, -14.69 65.3 M-17.44 0.37 C-16.71 21.3, -16.46 40.44, -15.77 64.73" stroke-width="4" fill="none" style="stroke: url(#color-5);"/>
      </g>
    </g>
    <g stroke-linecap="round" transform="matrix(1, 0, 0, 1, 23.749705, -79.054513)">
      <g transform="translate(559.0441551751687 590.3942913258675) rotate(0 -8.739918068232328 31.89580181799829)">
        <path d="M-0.83 1.04 C-6.97 0.72, -11.79 -0.83, -16.14 1.21 M-0.3 0.34 C-4.6 0.37, -7.96 -0.12, -16.77 -0.22 M-16.6 -0.22 C-15.18 14.69, -17.88 27.11, -14.54 64.27 M-16.98 -0.47 C-17.57 17.02, -16.91 33.69, -14.59 63.58" stroke-width="4" fill="none" style="stroke: url(#color-5);"/>
      </g>
    </g>
    <g stroke-linecap="round" transform="matrix(1, 0, 0, 1, 23.749705, -79.054513)">
      <g transform="translate(574.8439598626685 589.7942547047737) rotate(0 -9.131887797858667 31.02860908323106)">
        <path d="M0.77 -1.16 C-6.63 0.75, -12.09 -0.48, -17.14 0.68 M0.15 -0.65 C-6.37 0.4, -13.11 -0.5, -16.87 0.45 M-19.04 1.64 C-16.59 16.2, -18.07 30.29, -13.22 63 M-17.74 0.82 C-17.91 16.72, -17.04 33.85, -15.69 63.21" stroke-width="4" fill="none" style="stroke: url(#color-5);"/>
      </g>
    </g>
    <g stroke-linecap="round" transform="matrix(1, 0, 0, 1, 23.749705, -79.054513)">
      <g transform="translate(592.2441063470435 590.7942547047737) rotate(0 -9.891817949952497 31.999855443178774)">
        <path d="M-1.27 -0.24 C-2.96 -1.06, -9.16 -0.65, -17.54 -0.87 M-0.83 0.33 C-4.59 -0.07, -7.34 0.39, -17.03 -0.48 M-18.96 1.27 C-17.4 13.75, -17.6 26.24, -14.73 62.6 M-18.23 -0.75 C-17.26 18.44, -15.8 37.4, -14.81 64.87" stroke-width="4" fill="none" style="stroke: url(#color-5);"/>
      </g>
    </g>
    <g stroke-linecap="round" transform="matrix(1, 0, 0, 1, 22.749705, -79.054513)">
      <g transform="translate(674.044033104856 586.9943279469612) rotate(0 -9.212967738587736 31.706943845376372)">
        <path d="M0.3 -0.5 C-2.89 -0.19, -8.34 1.4, -19.13 1.46 M0.7 -0.39 C-5.29 0.17, -11.06 -0.81, -16.89 -0.49 M-17.4 -0.76 C-15.06 25.37, -16.39 46.77, -15.48 63.57 M-17.21 0.82 C-16.78 15.57, -16.68 29.53, -14.61 64.18" stroke-width="4" fill="none" style="stroke: url(#color-5);"/>
      </g>
    </g>
    <g stroke-linecap="round" transform="matrix(1, 0, 0, 1, 23.749705, -79.054513)">
      <g transform="translate(163.4495432978481 593.1333414713541) rotate(0 2.2434091325849295 29.963731598109007)">
        <path d="M1.49 1.59 C0.06 20.38, 3.51 40.31, 4.11 59.02 M0.38 0.75 C0.92 13.94, 0.38 27.52, 2.22 59.18" stroke-width="4" fill="none" style="stroke: url(#color-5);"/>
      </g>
    </g>
    <g stroke-linecap="round" transform="matrix(1, 0, 0, 1, 23.749705, -79.054513)">
      <g transform="translate(313.84950667675434 591.5333048502604) rotate(0 1.2501270715147257 32.000018989667296)">
        <path d="M0.04 -1.24 C0.81 20.57, -0.29 43.62, 0.37 65.2 M0.27 0.73 C1.2 14.38, 0.24 29.22, 2.46 65.24" stroke-width="4" fill="none" style="stroke: url(#color-5);"/>
      </g>
    </g>
    <g stroke-linecap="round" transform="matrix(1.151423, 0, 0, 1, -45.898595, -79.054513)" style="">
      <g transform="translate(461.0495188837856 592.3333536783854) rotate(0 0.3228728547692299 31.606326960027218)">
        <path d="M 0.246 -1.38 C -1.954 15.1 -1.05 27.96 -1.09 64.59 M -1.475 -0.387 C -3.645 13.593 -0.33 30.12 -0.77 64.21" stroke-width="4" fill="none" style="stroke: url(#color-5);"/>
      </g>
    </g>
    <g stroke-linecap="round" transform="matrix(1, 0, 0, 1, 24.749705, -82.054513)">
      <g transform="translate(590.6495555048793 592.3333536783854) rotate(0 0.11647194065153599 31.22946523502469)">
        <path d="M1.21 1.14 C-1.19 17.95, 0.04 32.93, 1.09 62.13 M-0.98 -0.7 C-0.28 20.97, -0.23 40.52, -0.18 63.16" stroke-width="4" fill="none" style="stroke: url(#color-5);"/>
      </g>
    </g>
    <g transform="matrix(1, 0, 0, 1, 57.599706, 508.478523)" stroke="none">
      <path d="M -2.64,0 Q -2.64,0 -2.63,-1.37 -2.62,-2.75 -2.63,-4.03 -2.64,-5.31 -2.70,-6.97 -2.77,-8.63 -2.83,-10.14 -2.90,-11.65 -2.95,-12.91 -3.00,-14.16 -3.05,-15.37 -3.09,-16.58 -3.13,-17.79 -3.16,-18.99 -3.21,-20.61 -3.25,-22.23 -3.28,-23.41 -3.30,-24.60 -3.33,-25.98 -3.37,-27.37 -2.94,-29.01 -2.52,-30.65 -1.77,-32.60 -1.03,-34.55 0.30,-36.78 1.64,-39.02 2.22,-39.97 2.80,-40.92 3.79,-41.93 4.78,-42.94 6.04,-44.67 7.30,-46.39 8.64,-47.50 9.98,-48.60 10.98,-49.18 11.97,-49.76 13.24,-50.20 14.51,-50.65 15.98,-51.30 17.44,-51.95 19.05,-52.60 20.65,-53.26 21.89,-53.45 23.13,-53.64 24.37,-53.68 25.61,-53.72 26.70,-53.74 27.79,-53.76 29.40,-54.14 31.01,-54.53 32.88,-54.28 34.75,-54.02 36.05,-53.93 37.36,-53.84 39.29,-53.46 41.21,-53.09 42.88,-52.74 44.54,-52.39 45.95,-51.97 47.36,-51.54 48.63,-51.02 49.90,-50.51 51.57,-49.13 53.23,-47.75 54.26,-47.05 55.28,-46.35 56.23,-45.47 57.18,-44.59 58.00,-43.77 58.81,-42.96 59.40,-42.04 60.00,-41.11 60.72,-40.00 61.44,-38.88 62.37,-37.21 63.30,-35.53 64.12,-33.88 64.94,-32.23 65.36,-30.69 65.78,-29.16 66.16,-27.73 66.54,-26.30 66.94,-24.71 67.34,-23.12 67.42,-21.62 67.51,-20.12 67.52,-18.86 67.53,-17.59 67.85,-15.93 68.17,-14.28 68.26,-13.13 68.34,-11.99 68.37,-10.70 68.40,-9.40 68.40,-8.27 68.40,-7.13 68.41,-5.87 68.42,-4.60 68.43,-3.39 68.44,-2.19 68.83,-0.06 69.23,2.05 69.19,2.64 69.15,3.23 68.92,3.78 68.70,4.32 68.31,4.77 67.92,5.21 67.41,5.51 66.90,5.81 66.32,5.93 65.74,6.05 65.15,5.97 64.57,5.90 64.03,5.64 63.50,5.39 63.08,4.98 62.65,4.56 62.39,4.04 62.12,3.51 62.03,2.93 61.94,2.34 62.05,1.76 62.15,1.18 62.43,0.66 62.72,0.14 63.15,-0.25 63.59,-0.65 64.13,-0.89 64.67,-1.13 65.26,-1.18 65.85,-1.24 66.42,-1.10 67.00,-0.97 67.50,-0.66 68.00,-0.34 68.38,0.10 68.75,0.56 68.96,1.11 69.17,1.66 69.20,2.25 69.22,2.84 69.05,3.41 68.89,3.98 68.55,4.46 68.21,4.95 67.73,5.30 67.26,5.65 66.70,5.83 66.13,6.01 65.54,6.00 64.95,5.99 64.39,5.79 63.84,5.60 63.37,5.23 62.91,4.87 62.58,4.37 62.26,3.88 62.11,3.31 61.96,2.74 61.96,2.74 61.96,2.74 61.56,-0.12 61.16,-2.99 61.17,-4.20 61.18,-5.41 61.19,-6.77 61.20,-8.13 61.20,-9.54 61.20,-10.95 61.26,-12.14 61.32,-13.33 60.88,-15.44 60.45,-17.55 60.44,-18.71 60.43,-19.87 60.47,-21.03 60.50,-22.18 60.13,-23.73 59.76,-25.28 59.32,-26.35 58.88,-27.42 58.54,-28.69 58.21,-29.96 57.29,-31.79 56.37,-33.61 55.58,-34.79 54.79,-35.97 54.22,-37.08 53.65,-38.19 52.89,-39.35 52.14,-40.51 51.08,-41.14 50.02,-41.78 49.20,-42.67 48.38,-43.56 47.40,-44.22 46.41,-44.89 45.24,-45.28 44.06,-45.67 42.75,-46.03 41.44,-46.40 40.04,-46.73 38.65,-47.06 36.92,-47.11 35.18,-47.16 34.13,-47.29 33.07,-47.42 31.69,-47.53 30.31,-47.64 29.10,-47.33 27.89,-47.03 26.30,-47.05 24.71,-47.06 23.25,-47.00 21.79,-46.93 20.08,-46.12 18.37,-45.32 16.85,-44.81 15.33,-44.29 13.39,-43.19 11.45,-42.09 10.85,-40.74 10.26,-39.39 9.26,-38.53 8.25,-37.67 7.66,-36.60 7.07,-35.52 6.47,-34.47 5.87,-33.41 5.34,-32.30 4.80,-31.18 4.09,-29.28 3.37,-27.37 3.33,-25.98 3.30,-24.60 3.28,-23.41 3.25,-22.23 3.21,-20.61 3.16,-18.99 3.13,-17.79 3.09,-16.58 3.05,-15.37 3.00,-14.16 2.95,-12.91 2.90,-11.65 2.83,-10.14 2.77,-8.63 2.70,-6.97 2.64,-5.31 2.63,-4.03 2.62,-2.75 2.63,-1.37 2.64,0 2.60,0.31 2.56,0.63 2.45,0.93 2.34,1.22 2.15,1.49 1.97,1.75 1.74,1.96 1.50,2.17 1.21,2.32 0.93,2.47 0.62,2.54 0.31,2.62 -0.00,2.62 -0.31,2.62 -0.62,2.54 -0.93,2.47 -1.21,2.32 -1.50,2.17 -1.74,1.96 -1.97,1.75 -2.15,1.49 -2.34,1.22 -2.45,0.93 -2.56,0.63 -2.60,0.31 -2.64,-0.00 -2.64,-0.00 L -2.64,0 Z" style="stroke: url(#color-5); fill: url(#color-5);"/>
    </g>
    <g transform="matrix(1, 0, 0, 1, 189.398715, 509.278511)" stroke="none" style="">
      <path d="M -2.64,0 Q -2.64,0 -2.63,-1.37 -2.62,-2.75 -2.63,-4.03 -2.64,-5.31 -2.70,-6.97 -2.77,-8.63 -2.83,-10.14 -2.90,-11.65 -2.95,-12.91 -3.00,-14.16 -3.05,-15.37 -3.09,-16.58 -3.13,-17.79 -3.16,-18.99 -3.21,-20.61 -3.25,-22.23 -3.28,-23.41 -3.30,-24.60 -3.33,-25.98 -3.37,-27.37 -2.94,-29.01 -2.52,-30.65 -1.77,-32.60 -1.03,-34.55 0.30,-36.78 1.64,-39.02 2.22,-39.97 2.80,-40.92 3.79,-41.93 4.78,-42.94 6.04,-44.67 7.30,-46.39 8.64,-47.50 9.98,-48.60 10.98,-49.18 11.97,-49.76 13.24,-50.20 14.51,-50.65 15.98,-51.30 17.44,-51.95 19.05,-52.60 20.65,-53.26 21.89,-53.45 23.13,-53.64 24.37,-53.68 25.61,-53.72 26.70,-53.74 27.79,-53.76 29.40,-54.14 31.01,-54.53 32.88,-54.28 34.75,-54.02 36.05,-53.93 37.36,-53.84 39.29,-53.46 41.21,-53.09 42.88,-52.74 44.54,-52.39 45.95,-51.97 47.36,-51.54 48.63,-51.02 49.90,-50.51 51.57,-49.13 53.23,-47.75 54.26,-47.05 55.28,-46.35 56.23,-45.47 57.18,-44.59 58.00,-43.77 58.81,-42.96 59.40,-42.04 60.00,-41.11 60.72,-40.00 61.44,-38.88 62.37,-37.21 63.30,-35.53 64.12,-33.88 64.94,-32.23 65.36,-30.69 65.78,-29.16 66.16,-27.73 66.54,-26.30 66.94,-24.71 67.34,-23.12 67.42,-21.62 67.51,-20.12 67.52,-18.86 67.53,-17.59 67.85,-15.93 68.17,-14.28 68.26,-13.13 68.34,-11.99 68.37,-10.70 68.40,-9.40 68.40,-8.27 68.40,-7.13 68.41,-5.87 68.42,-4.60 68.43,-3.39 68.44,-2.19 68.82,-0.20 69.21,1.78 69.17,2.37 69.13,2.95 68.90,3.50 68.67,4.05 68.28,4.49 67.89,4.94 67.38,5.23 66.87,5.53 66.29,5.65 65.71,5.77 65.13,5.70 64.54,5.62 64.01,5.37 63.47,5.11 63.05,4.70 62.63,4.29 62.36,3.76 62.09,3.23 62.00,2.65 61.92,2.06 62.02,1.48 62.12,0.90 62.41,0.38 62.69,-0.13 63.13,-0.53 63.56,-0.93 64.10,-1.17 64.64,-1.41 65.23,-1.46 65.82,-1.52 66.40,-1.38 66.97,-1.25 67.47,-0.93 67.97,-0.62 68.35,-0.17 68.73,0.28 68.94,0.83 69.15,1.38 69.17,1.98 69.20,2.57 69.03,3.13 68.86,3.70 68.52,4.18 68.18,4.67 67.71,5.02 67.23,5.37 66.67,5.55 66.11,5.73 65.52,5.72 64.92,5.71 64.37,5.52 63.81,5.32 63.34,4.96 62.88,4.59 62.56,4.10 62.23,3.60 62.08,3.03 61.93,2.46 61.93,2.46 61.93,2.46 61.55,-0.26 61.16,-2.99 61.17,-4.20 61.18,-5.41 61.19,-6.77 61.20,-8.13 61.20,-9.54 61.20,-10.95 61.26,-12.14 61.32,-13.33 60.88,-15.44 60.45,-17.55 60.44,-18.71 60.43,-19.87 60.47,-21.03 60.50,-22.18 60.13,-23.73 59.76,-25.28 59.32,-26.35 58.88,-27.42 58.54,-28.69 58.21,-29.96 57.29,-31.79 56.37,-33.61 55.58,-34.79 54.79,-35.97 54.22,-37.08 53.65,-38.19 52.89,-39.35 52.14,-40.51 51.08,-41.14 50.02,-41.78 49.20,-42.67 48.38,-43.56 47.40,-44.22 46.41,-44.89 45.24,-45.28 44.06,-45.67 42.75,-46.03 41.44,-46.40 40.04,-46.73 38.65,-47.06 36.92,-47.11 35.18,-47.16 34.13,-47.29 33.07,-47.42 31.69,-47.53 30.31,-47.64 29.10,-47.33 27.89,-47.03 26.30,-47.05 24.71,-47.06 23.25,-47.00 21.79,-46.93 20.08,-46.12 18.37,-45.32 16.85,-44.81 15.33,-44.29 13.39,-43.19 11.45,-42.09 10.85,-40.74 10.26,-39.39 9.26,-38.53 8.25,-37.67 7.66,-36.60 7.07,-35.52 6.47,-34.47 5.87,-33.41 5.34,-32.30 4.80,-31.18 4.09,-29.28 3.37,-27.37 3.33,-25.98 3.30,-24.60 3.28,-23.41 3.25,-22.23 3.21,-20.61 3.16,-18.99 3.13,-17.79 3.09,-16.58 3.05,-15.37 3.00,-14.16 2.95,-12.91 2.90,-11.65 2.83,-10.14 2.77,-8.63 2.70,-6.97 2.64,-5.31 2.63,-4.03 2.62,-2.75 2.63,-1.37 2.64,0 2.60,0.31 2.56,0.63 2.45,0.93 2.34,1.22 2.15,1.49 1.97,1.75 1.74,1.96 1.50,2.17 1.21,2.32 0.93,2.47 0.62,2.54 0.31,2.62 -0.00,2.62 -0.31,2.62 -0.62,2.54 -0.93,2.47 -1.21,2.32 -1.50,2.17 -1.74,1.96 -1.97,1.75 -2.15,1.49 -2.34,1.22 -2.45,0.93 -2.56,0.63 -2.60,0.31 -2.64,-0.00 -2.64,-0.00 L -2.64,0 Z" style="stroke: url(#color-5); fill: url(#color-5);"/>
    </g>
    <g transform="matrix(1, 0, 0, 1, 335.598699, 506.878487)" stroke="none" style="">
      <path d="M -2.64,0 Q -2.64,0 -2.63,-1.37 -2.62,-2.75 -2.63,-4.03 -2.64,-5.31 -2.70,-6.97 -2.77,-8.63 -2.83,-10.14 -2.90,-11.65 -2.95,-12.91 -3.00,-14.16 -3.05,-15.37 -3.09,-16.58 -3.13,-17.79 -3.16,-18.99 -3.21,-20.61 -3.25,-22.23 -3.28,-23.41 -3.30,-24.60 -3.33,-25.98 -3.37,-27.37 -2.94,-29.01 -2.52,-30.65 -1.77,-32.60 -1.03,-34.55 0.30,-36.78 1.64,-39.02 2.22,-39.97 2.80,-40.92 3.79,-41.93 4.78,-42.94 6.04,-44.67 7.30,-46.39 8.64,-47.50 9.98,-48.60 10.98,-49.18 11.97,-49.76 13.24,-50.20 14.51,-50.65 15.98,-51.30 17.44,-51.95 19.05,-52.60 20.65,-53.26 21.89,-53.45 23.13,-53.64 24.37,-53.68 25.61,-53.72 26.70,-53.74 27.79,-53.76 29.40,-54.14 31.01,-54.53 32.88,-54.28 34.75,-54.02 36.05,-53.93 37.36,-53.84 39.29,-53.46 41.21,-53.09 42.88,-52.74 44.54,-52.39 45.95,-51.97 47.36,-51.54 48.63,-51.02 49.90,-50.51 51.57,-49.13 53.23,-47.75 54.26,-47.05 55.28,-46.35 56.23,-45.47 57.18,-44.59 58.00,-43.77 58.81,-42.96 59.40,-42.04 60.00,-41.11 60.72,-40.00 61.44,-38.88 62.37,-37.21 63.30,-35.53 64.12,-33.88 64.94,-32.23 65.36,-30.69 65.78,-29.16 66.16,-27.73 66.54,-26.30 66.94,-24.71 67.34,-23.12 67.42,-21.62 67.51,-20.12 67.52,-18.86 67.53,-17.59 67.85,-15.93 68.17,-14.28 68.26,-13.13 68.34,-11.99 68.37,-10.70 68.40,-9.40 68.40,-8.27 68.40,-7.13 68.41,-5.87 68.42,-4.60 68.43,-3.39 68.44,-2.19 68.82,-0.20 69.21,1.78 69.17,2.37 69.13,2.95 68.90,3.50 68.67,4.05 68.28,4.49 67.89,4.94 67.38,5.23 66.87,5.53 66.29,5.65 65.71,5.77 65.13,5.70 64.54,5.62 64.01,5.37 63.47,5.11 63.05,4.70 62.63,4.29 62.36,3.76 62.09,3.23 62.00,2.65 61.92,2.06 62.02,1.48 62.12,0.90 62.41,0.38 62.69,-0.13 63.13,-0.53 63.56,-0.93 64.10,-1.17 64.64,-1.41 65.23,-1.46 65.82,-1.52 66.40,-1.38 66.97,-1.25 67.47,-0.93 67.97,-0.62 68.35,-0.17 68.73,0.28 68.94,0.83 69.15,1.38 69.17,1.98 69.20,2.57 69.03,3.13 68.86,3.70 68.52,4.18 68.18,4.67 67.71,5.02 67.23,5.37 66.67,5.55 66.11,5.73 65.52,5.72 64.92,5.71 64.37,5.52 63.81,5.32 63.34,4.96 62.88,4.59 62.56,4.10 62.23,3.60 62.08,3.03 61.93,2.46 61.93,2.46 61.93,2.46 61.55,-0.26 61.16,-2.99 61.17,-4.20 61.18,-5.41 61.19,-6.77 61.20,-8.13 61.20,-9.54 61.20,-10.95 61.26,-12.14 61.32,-13.33 60.88,-15.44 60.45,-17.55 60.44,-18.71 60.43,-19.87 60.47,-21.03 60.50,-22.18 60.13,-23.73 59.76,-25.28 59.32,-26.35 58.88,-27.42 58.54,-28.69 58.21,-29.96 57.29,-31.79 56.37,-33.61 55.58,-34.79 54.79,-35.97 54.22,-37.08 53.65,-38.19 52.89,-39.35 52.14,-40.51 51.08,-41.14 50.02,-41.78 49.20,-42.67 48.38,-43.56 47.40,-44.22 46.41,-44.89 45.24,-45.28 44.06,-45.67 42.75,-46.03 41.44,-46.40 40.04,-46.73 38.65,-47.06 36.92,-47.11 35.18,-47.16 34.13,-47.29 33.07,-47.42 31.69,-47.53 30.31,-47.64 29.10,-47.33 27.89,-47.03 26.30,-47.05 24.71,-47.06 23.25,-47.00 21.79,-46.93 20.08,-46.12 18.37,-45.32 16.85,-44.81 15.33,-44.29 13.39,-43.19 11.45,-42.09 10.85,-40.74 10.26,-39.39 9.26,-38.53 8.25,-37.67 7.66,-36.60 7.07,-35.52 6.47,-34.47 5.87,-33.41 5.34,-32.30 4.80,-31.18 4.09,-29.28 3.37,-27.37 3.33,-25.98 3.30,-24.60 3.28,-23.41 3.25,-22.23 3.21,-20.61 3.16,-18.99 3.13,-17.79 3.09,-16.58 3.05,-15.37 3.00,-14.16 2.95,-12.91 2.90,-11.65 2.83,-10.14 2.77,-8.63 2.70,-6.97 2.64,-5.31 2.63,-4.03 2.62,-2.75 2.63,-1.37 2.64,0 2.60,0.31 2.56,0.63 2.45,0.93 2.34,1.22 2.15,1.49 1.97,1.75 1.74,1.96 1.50,2.17 1.21,2.32 0.93,2.47 0.62,2.54 0.31,2.62 -0.00,2.62 -0.31,2.62 -0.62,2.54 -0.93,2.47 -1.21,2.32 -1.50,2.17 -1.74,1.96 -1.97,1.75 -2.15,1.49 -2.34,1.22 -2.45,0.93 -2.56,0.63 -2.60,0.31 -2.64,-0.00 -2.64,-0.00 L -2.64,0 Z" style="stroke: url(#color-5); fill: url(#color-5);"/>
    </g>
    <g transform="matrix(1, 0, 0, 1, 483.79972, 508.278511)" stroke="none">
      <path d="M -2.64,0 Q -2.64,0 -2.63,-1.37 -2.62,-2.75 -2.63,-4.03 -2.64,-5.31 -2.70,-6.97 -2.77,-8.63 -2.83,-10.14 -2.90,-11.65 -2.95,-12.91 -3.00,-14.16 -3.05,-15.37 -3.09,-16.58 -3.13,-17.79 -3.16,-18.99 -3.21,-20.61 -3.25,-22.23 -3.28,-23.41 -3.30,-24.60 -3.33,-25.98 -3.37,-27.37 -2.94,-29.01 -2.52,-30.65 -1.77,-32.60 -1.03,-34.55 0.30,-36.78 1.64,-39.02 2.22,-39.97 2.80,-40.92 3.79,-41.93 4.78,-42.94 6.04,-44.67 7.30,-46.39 8.64,-47.50 9.98,-48.60 10.98,-49.18 11.97,-49.76 13.24,-50.20 14.51,-50.65 15.98,-51.30 17.44,-51.95 19.05,-52.60 20.65,-53.26 21.89,-53.45 23.13,-53.64 24.37,-53.68 25.61,-53.72 26.70,-53.74 27.79,-53.76 29.40,-54.14 31.01,-54.53 32.88,-54.28 34.75,-54.02 36.05,-53.93 37.36,-53.84 39.29,-53.46 41.21,-53.09 42.88,-52.74 44.54,-52.39 45.95,-51.97 47.36,-51.54 48.63,-51.02 49.90,-50.51 51.57,-49.13 53.23,-47.75 54.26,-47.05 55.28,-46.35 56.23,-45.47 57.18,-44.59 58.00,-43.77 58.81,-42.96 59.40,-42.04 60.00,-41.11 60.72,-40.00 61.44,-38.88 62.37,-37.21 63.30,-35.53 64.12,-33.88 64.94,-32.23 65.36,-30.69 65.78,-29.16 66.16,-27.73 66.54,-26.30 66.94,-24.71 67.34,-23.12 67.42,-21.62 67.51,-20.12 67.52,-18.86 67.53,-17.59 67.85,-15.93 68.17,-14.28 68.26,-13.13 68.34,-11.99 68.37,-10.70 68.40,-9.40 68.40,-8.27 68.40,-7.13 68.41,-5.87 68.42,-4.60 68.43,-3.39 68.44,-2.19 68.82,-0.20 69.21,1.78 69.17,2.37 69.13,2.95 68.90,3.50 68.67,4.05 68.28,4.49 67.89,4.94 67.38,5.23 66.87,5.53 66.29,5.65 65.71,5.77 65.13,5.70 64.54,5.62 64.01,5.37 63.47,5.11 63.05,4.70 62.63,4.29 62.36,3.76 62.09,3.23 62.00,2.65 61.92,2.06 62.02,1.48 62.12,0.90 62.41,0.38 62.69,-0.13 63.13,-0.53 63.56,-0.93 64.10,-1.17 64.64,-1.41 65.23,-1.46 65.82,-1.52 66.40,-1.38 66.97,-1.25 67.47,-0.93 67.97,-0.62 68.35,-0.17 68.73,0.28 68.94,0.83 69.15,1.38 69.17,1.98 69.20,2.57 69.03,3.13 68.86,3.70 68.52,4.18 68.18,4.67 67.71,5.02 67.23,5.37 66.67,5.55 66.11,5.73 65.52,5.72 64.92,5.71 64.37,5.52 63.81,5.32 63.34,4.96 62.88,4.59 62.56,4.10 62.23,3.60 62.08,3.03 61.93,2.46 61.93,2.46 61.93,2.46 61.55,-0.26 61.16,-2.99 61.17,-4.20 61.18,-5.41 61.19,-6.77 61.20,-8.13 61.20,-9.54 61.20,-10.95 61.26,-12.14 61.32,-13.33 60.88,-15.44 60.45,-17.55 60.44,-18.71 60.43,-19.87 60.47,-21.03 60.50,-22.18 60.13,-23.73 59.76,-25.28 59.32,-26.35 58.88,-27.42 58.54,-28.69 58.21,-29.96 57.29,-31.79 56.37,-33.61 55.58,-34.79 54.79,-35.97 54.22,-37.08 53.65,-38.19 52.89,-39.35 52.14,-40.51 51.08,-41.14 50.02,-41.78 49.20,-42.67 48.38,-43.56 47.40,-44.22 46.41,-44.89 45.24,-45.28 44.06,-45.67 42.75,-46.03 41.44,-46.40 40.04,-46.73 38.65,-47.06 36.92,-47.11 35.18,-47.16 34.13,-47.29 33.07,-47.42 31.69,-47.53 30.31,-47.64 29.10,-47.33 27.89,-47.03 26.30,-47.05 24.71,-47.06 23.25,-47.00 21.79,-46.93 20.08,-46.12 18.37,-45.32 16.85,-44.81 15.33,-44.29 13.39,-43.19 11.45,-42.09 10.85,-40.74 10.26,-39.39 9.26,-38.53 8.25,-37.67 7.66,-36.60 7.07,-35.52 6.47,-34.47 5.87,-33.41 5.34,-32.30 4.80,-31.18 4.09,-29.28 3.37,-27.37 3.33,-25.98 3.30,-24.60 3.28,-23.41 3.25,-22.23 3.21,-20.61 3.16,-18.99 3.13,-17.79 3.09,-16.58 3.05,-15.37 3.00,-14.16 2.95,-12.91 2.90,-11.65 2.83,-10.14 2.77,-8.63 2.70,-6.97 2.64,-5.31 2.63,-4.03 2.62,-2.75 2.63,-1.37 2.64,0 2.60,0.31 2.56,0.63 2.45,0.93 2.34,1.22 2.15,1.49 1.97,1.75 1.74,1.96 1.50,2.17 1.21,2.32 0.93,2.47 0.62,2.54 0.31,2.62 -0.00,2.62 -0.31,2.62 -0.62,2.54 -0.93,2.47 -1.21,2.32 -1.50,2.17 -1.74,1.96 -1.97,1.75 -2.15,1.49 -2.34,1.22 -2.45,0.93 -2.56,0.63 -2.60,0.31 -2.64,-0.00 -2.64,-0.00 L -2.64,0 Z" style="stroke: url(#color-5); fill: url(#color-5);"/>
    </g>
    <g transform="matrix(1, 0, 0, 1, 616.598703, 507.478523)" stroke="none" style="">
      <path d="M -3.64 0 C -3.64 0 -3.637 -0.457 -3.63 -1.37 C -3.623 -2.29 -3.623 -3.177 -3.63 -4.03 C -3.637 -4.883 -3.66 -5.863 -3.7 -6.97 C -3.747 -8.077 -3.79 -9.133 -3.83 -10.14 C -3.877 -11.147 -3.917 -12.07 -3.95 -12.91 C -3.983 -13.743 -4.017 -14.563 -4.05 -15.37 C -4.077 -16.177 -4.103 -16.983 -4.13 -17.79 C -4.15 -18.59 -4.177 -19.53 -4.21 -20.61 C -4.237 -21.69 -4.26 -22.623 -4.28 -23.41 C -4.293 -24.203 -4.31 -25.06 -4.33 -25.98 C -4.357 -26.907 -4.227 -27.917 -3.94 -29.01 C -3.66 -30.103 -3.27 -31.3 -2.77 -32.6 C -2.277 -33.9 -1.587 -35.293 -0.7 -36.78 C 0.193 -38.273 0.833 -39.337 1.22 -39.97 C 1.607 -40.603 2.13 -41.257 2.79 -41.93 C 3.45 -42.603 4.2 -43.517 5.04 -44.67 C 5.88 -45.817 6.747 -46.76 7.64 -47.5 C 8.533 -48.233 9.313 -48.793 9.98 -49.18 C 10.64 -49.567 11.393 -49.907 12.24 -50.2 C 13.087 -50.5 14 -50.867 14.98 -51.3 C 15.953 -51.733 16.977 -52.167 18.05 -52.6 C 19.117 -53.04 20.063 -53.323 20.89 -53.45 C 21.717 -53.577 22.543 -53.653 23.37 -53.68 C 24.197 -53.707 24.973 -53.727 25.7 -53.74 C 26.427 -53.753 27.327 -53.887 28.4 -54.14 C 29.473 -54.4 30.633 -54.447 31.88 -54.28 C 33.127 -54.107 34.183 -53.99 35.05 -53.93 C 35.923 -53.87 37.003 -53.713 38.29 -53.46 C 39.57 -53.213 40.767 -52.973 41.88 -52.74 C 42.987 -52.507 44.01 -52.25 44.95 -51.97 C 45.89 -51.683 46.783 -51.367 47.63 -51.02 C 48.477 -50.68 49.457 -50.05 50.57 -49.13 C 51.677 -48.21 52.573 -47.517 53.26 -47.05 C 53.94 -46.583 54.597 -46.057 55.23 -45.47 C 55.863 -44.883 56.453 -44.317 57 -43.77 C 57.54 -43.23 58.007 -42.653 58.4 -42.04 C 58.8 -41.42 59.24 -40.74 59.72 -40 C 60.2 -39.253 60.75 -38.323 61.37 -37.21 C 61.99 -36.09 62.573 -34.98 63.12 -33.88 C 63.667 -32.78 64.08 -31.717 64.36 -30.69 C 64.64 -29.67 64.907 -28.683 65.16 -27.73 C 65.413 -26.777 65.673 -25.77 65.94 -24.71 C 66.207 -23.65 66.367 -22.62 66.42 -21.62 C 66.48 -20.62 66.513 -19.7 66.52 -18.86 C 66.527 -18.013 66.637 -17.037 66.85 -15.93 C 67.063 -14.83 67.2 -13.897 67.26 -13.13 C 67.313 -12.37 67.35 -11.56 67.37 -10.7 C 67.39 -9.833 67.4 -9.023 67.4 -8.27 C 67.4 -7.51 67.403 -6.71 67.41 -5.87 C 67.417 -5.023 67.423 -4.197 67.43 -3.39 C 67.437 -2.59 67.567 -1.527 67.82 -0.2 C 68.08 1.12 68.197 1.977 68.17 2.37 C 68.143 2.757 68.053 3.133 67.9 3.5 C 67.747 3.867 67.54 4.197 67.28 4.49 C 67.02 4.79 66.72 5.037 66.38 5.23 C 66.04 5.43 65.677 5.57 65.29 5.65 C 64.903 5.73 64.517 5.747 64.13 5.7 C 63.737 5.647 63.363 5.537 63.01 5.37 C 62.65 5.197 62.33 4.973 62.05 4.7 C 61.77 4.427 61.54 4.113 61.36 3.76 C 61.18 3.407 61.06 3.037 61 2.65 C 60.947 2.257 60.953 1.867 61.02 1.48 C 61.087 1.093 61.217 0.727 61.41 0.38 C 61.597 0.04 61.837 -0.263 62.13 -0.53 C 62.417 -0.797 62.74 -1.01 63.1 -1.17 C 63.46 -1.33 63.837 -1.427 64.23 -1.46 C 64.623 -1.5 65.013 -1.473 65.4 -1.38 C 65.78 -1.293 66.137 -1.143 66.47 -0.93 C 66.803 -0.723 67.097 -0.47 67.35 -0.17 C 67.603 0.13 67.8 0.463 67.94 0.83 C 68.08 1.197 68.157 1.58 68.17 1.98 C 68.19 2.373 68.143 2.757 68.03 3.13 C 67.917 3.51 67.747 3.86 67.52 4.18 C 67.293 4.507 67.023 4.787 66.71 5.02 C 66.39 5.253 66.043 5.43 65.67 5.55 C 65.297 5.67 64.913 5.727 64.52 5.72 C 64.12 5.713 63.737 5.647 63.37 5.52 C 62.997 5.387 62.653 5.2 62.34 4.96 C 62.033 4.713 61.773 4.427 61.56 4.1 C 61.34 3.767 61.18 3.41 61.08 3.03 C 60.98 2.65 60.93 2.46 60.93 2.46 C 60.93 2.46 60.803 1.553 60.55 -0.26 C 60.29 -2.08 60.163 -3.393 60.17 -4.2 C 60.177 -5.007 60.183 -5.863 60.19 -6.77 C 60.197 -7.677 60.2 -8.6 60.2 -9.54 C 60.2 -10.48 60.22 -11.347 60.26 -12.14 C 60.3 -12.933 60.173 -14.033 59.88 -15.44 C 59.593 -16.847 59.447 -17.937 59.44 -18.71 C 59.433 -19.483 59.443 -20.257 59.47 -21.03 C 59.49 -21.797 59.377 -22.697 59.13 -23.73 C 58.883 -24.763 58.613 -25.637 58.32 -26.35 C 58.027 -27.063 57.767 -27.843 57.54 -28.69 C 57.32 -29.537 56.903 -30.57 56.29 -31.79 C 55.677 -33.003 55.107 -34.003 54.58 -34.79 C 54.053 -35.577 53.6 -36.34 53.22 -37.08 C 52.84 -37.82 52.397 -38.577 51.89 -39.35 C 51.39 -40.123 50.787 -40.72 50.08 -41.14 C 49.373 -41.567 48.747 -42.077 48.2 -42.67 C 47.653 -43.263 47.053 -43.78 46.4 -44.22 C 45.74 -44.667 45.02 -45.02 44.24 -45.28 C 43.453 -45.54 42.623 -45.79 41.75 -46.03 C 40.877 -46.277 39.973 -46.51 39.04 -46.73 C 38.113 -46.95 37.073 -47.077 35.92 -47.11 C 34.76 -47.143 33.83 -47.203 33.13 -47.29 C 32.423 -47.377 31.61 -47.457 30.69 -47.53 C 29.77 -47.603 28.907 -47.537 28.1 -47.33 C 27.293 -47.13 26.36 -47.037 25.3 -47.05 C 24.24 -47.057 23.223 -47.04 22.25 -47 C 21.277 -46.953 20.22 -46.66 19.08 -46.12 C 17.94 -45.587 16.863 -45.15 15.85 -44.81 C 14.837 -44.463 13.683 -43.923 12.39 -43.19 C 11.097 -42.457 10.25 -41.64 9.85 -40.74 C 9.457 -39.84 8.927 -39.103 8.26 -38.53 C 7.587 -37.957 7.053 -37.313 6.66 -36.6 C 6.267 -35.88 5.87 -35.17 5.47 -34.47 C 5.07 -33.763 4.693 -33.04 4.34 -32.3 C 3.98 -31.553 3.563 -30.547 3.09 -29.28 C 2.61 -28.007 2.357 -26.907 2.33 -25.98 C 2.31 -25.06 2.293 -24.203 2.28 -23.41 C 2.26 -22.623 2.237 -21.69 2.21 -20.61 C 2.177 -19.53 2.15 -18.59 2.13 -17.79 C 2.103 -16.983 2.077 -16.177 2.05 -15.37 C 2.017 -14.563 1.983 -13.743 1.95 -12.91 C 1.917 -12.07 1.877 -11.147 1.83 -10.14 C 1.79 -9.133 1.747 -8.077 1.7 -6.97 C 1.66 -5.863 1.637 -4.883 1.63 -4.03 C 1.623 -3.177 1.623 -2.29 1.63 -1.37 C 1.637 -0.457 1.627 0.103 1.6 0.31 C 1.573 0.523 1.523 0.73 1.45 0.93 C 1.377 1.123 1.277 1.31 1.15 1.49 C 1.03 1.663 0.893 1.82 0.74 1.96 C 0.58 2.1 0.403 2.22 0.21 2.32 C 0.023 2.42 -0.173 2.493 -0.38 2.54 C -0.587 2.593 -0.793 2.62 -1 2.62 C -1.207 2.62 -1.413 2.593 -1.62 2.54 C -1.827 2.493 -2.023 2.42 -2.21 2.32 C -2.403 2.22 -2.58 2.1 -2.74 1.96 C -2.893 1.82 -3.03 1.663 -3.15 1.49 C -3.277 1.31 -3.377 1.123 -3.45 0.93 C -3.523 0.73 -3.573 0.523 -3.6 0.31 C -3.627 0.103 -3.64 0 -3.64 0 Z" style="stroke: url(#color-5); fill: url(#color-5); transform-box: fill-box; transform-origin: 50% 50%;"/>
    </g>
  </g>
  <g>
    <title>Holes</title>
    <g stroke-linecap="round" transform="matrix(0.940625, 0, 0, 0.940625, 65.279588, 469.491248)">
      <path d="M35.38 2.55 C40.02 4.48, 45.44 9.29, 47.54 13.92 C49.64 18.54, 49.46 25.15, 47.96 30.28 C46.46 35.42, 42.77 41.57, 38.52 44.72 C34.28 47.87, 27.57 49.64, 22.5 49.17 C17.43 48.7, 11.77 45.61, 8.11 41.91 C4.45 38.2, 1.19 32.12, 0.55 26.93 C-0.1 21.75, 1.19 15.01, 4.24 10.8 C7.28 6.59, 13.01 2.81, 18.84 1.67 C24.66 0.53, 35.52 3.24, 39.2 3.94 C42.88 4.65, 41.12 5.5, 40.92 5.9 M35.34 0.75 C40.29 2.05, 44.75 7.23, 47.14 11.87 C49.53 16.51, 50.96 23.28, 49.65 28.6 C48.35 33.92, 43.51 40.26, 39.33 43.78 C35.16 47.29, 29.58 49.71, 24.58 49.7 C19.58 49.69, 13.58 47.19, 9.34 43.71 C5.09 40.22, -0.01 34.13, -0.88 28.78 C-1.75 23.42, 1.14 16.1, 4.14 11.56 C7.14 7.02, 12.37 3.33, 17.11 1.54 C21.86 -0.24, 29.67 0.69, 32.61 0.85 C35.55 1.01, 34.43 2.04, 34.75 2.5" stroke-width="4" fill="none" style="stroke: url(#color-5);"/>
    </g>
    <g stroke-linecap="round" transform="matrix(0.980021, 0, 0, 0.980021, 196.895846, 467.983802)" style="">
      <path d="M23.43 0.04 C28.4 -0.56, 35 1.09, 39.28 4.44 C43.56 7.78, 47.89 14.76, 49.12 20.09 C50.34 25.41, 48.97 31.91, 46.62 36.4 C44.28 40.89, 39.76 45.11, 35.05 47.03 C30.34 48.94, 23.52 49.38, 18.37 47.89 C13.22 46.4, 7.3 42.33, 4.16 38.1 C1.01 33.87, -1.09 27.89, -0.5 22.52 C0.09 17.14, 3.55 9.7, 7.69 5.85 C11.84 1.99, 21.23 0.41, 24.38 -0.62 C27.53 -1.64, 26.5 -0.92, 26.6 -0.31 M17.21 1.88 C21.62 -0.09, 27.2 0.09, 31.85 1.97 C36.5 3.85, 41.98 8.53, 45.12 13.16 C48.26 17.79, 51.32 24.48, 50.68 29.73 C50.05 34.98, 45.56 41.33, 41.31 44.68 C37.05 48.03, 30.45 49.86, 25.15 49.84 C19.84 49.81, 13.54 47.78, 9.48 44.54 C5.42 41.3, 2.06 35.73, 0.78 30.38 C-0.5 25.02, -0.77 17.24, 1.81 12.41 C4.39 7.59, 14.04 3.27, 16.25 1.44 C18.46 -0.39, 15.18 1.02, 15.08 1.43" stroke-width="4" fill="none" style="stroke: url(#color-5);"/>
    </g>
    <g stroke-linecap="round" transform="matrix(0.940625, 0, 0, 0.940625, 344.178655, 467.638465)">
      <path d="M25.45 -0.74 C30.58 -1.2, 37.4 1.68, 41.49 5.45 C45.58 9.23, 49.14 16.5, 50 21.9 C50.87 27.29, 49.41 33.42, 46.67 37.81 C43.93 42.21, 38.67 46.54, 33.57 48.27 C28.46 50, 21.05 50.05, 16.03 48.18 C11.01 46.3, 5.93 41.86, 3.44 37.01 C0.95 32.17, 0.15 24.35, 1.09 19.13 C2.02 13.9, 4.73 8.96, 9.04 5.67 C13.35 2.37, 23.72 0.31, 26.93 -0.63 C30.15 -1.57, 28.32 -0.53, 28.3 0.01 M27.24 1.29 C32.44 1.8, 39.41 4.08, 43.26 7.8 C47.1 11.53, 49.91 18.14, 50.31 23.64 C50.72 29.14, 48.83 36.8, 45.68 40.81 C42.53 44.82, 36.73 46.66, 31.4 47.72 C26.07 48.78, 18.86 49.5, 13.7 47.18 C8.53 44.86, 2.55 38.84, 0.42 33.81 C-1.71 28.79, -1.03 22.21, 0.92 17.02 C2.87 11.82, 7.62 5.36, 12.11 2.65 C16.6 -0.06, 25.42 1.25, 27.86 0.77 C30.29 0.29, 26.89 -0.39, 26.72 -0.24" stroke-width="4" fill="none" style="stroke: url(#color-5);"/>
    </g>
    <g stroke-linecap="round" transform="matrix(0.956246, 0, 0, 0.956246, 492.509285, 467.893806)" style="">
      <path d="M22.54 -0.57 C27.38 -1.04, 34.37 1.73, 38.8 5.01 C43.23 8.3, 47.68 14.13, 49.09 19.15 C50.51 24.18, 49.72 30.56, 47.31 35.15 C44.9 39.74, 39.39 44.57, 34.63 46.69 C29.87 48.81, 23.71 49.29, 18.73 47.89 C13.75 46.49, 8.01 42.7, 4.75 38.28 C1.5 33.86, -1.44 26.61, -0.81 21.39 C-0.17 16.17, 4.17 10.59, 8.56 6.96 C12.95 3.33, 22.7 0.78, 25.54 -0.38 C28.38 -1.55, 25.63 -0.4, 25.62 -0.04 M18.99 0.3 C23.8 -0.89, 30.65 1.22, 35.15 3.44 C39.64 5.67, 43.94 8.92, 45.96 13.64 C47.98 18.35, 48.65 26.42, 47.26 31.72 C45.88 37.02, 41.8 42.3, 37.65 45.44 C33.5 48.59, 27.69 51.26, 22.35 50.58 C17.01 49.91, 9.39 45.5, 5.6 41.41 C1.82 37.33, -0.08 31.41, -0.36 26.07 C-0.64 20.73, 0.67 13.56, 3.9 9.37 C7.13 5.18, 16.4 2.35, 19.04 0.9 C21.68 -0.54, 19.59 0.35, 19.75 0.71" stroke-width="4" fill="none" style="stroke: url(#color-5);"/>
    </g>
    <g stroke-linecap="round" transform="matrix(0.964811, 0, 0, 0.964811, 624.32966, 469.671821)" style="">
      <path d="M13.55 2.73 C17.98 0.09, 25.9 -1.52, 30.98 -0.39 C36.06 0.73, 41 5.16, 44.02 9.48 C47.05 13.79, 49.41 20.08, 49.13 25.48 C48.85 30.89, 45.87 37.81, 42.35 41.9 C38.84 46, 33.25 49.36, 28.03 50.08 C22.81 50.79, 15.53 49.31, 11.03 46.19 C6.53 43.07, 2.44 36.53, 1.03 31.37 C-0.39 26.22, 0.11 20.02, 2.52 15.26 C4.94 10.49, 13.14 5.08, 15.52 2.76 C17.91 0.44, 16.67 1.16, 16.84 1.32 M29.3 0.94 C34.64 1.65, 41.28 6.1, 44.6 9.99 C47.92 13.88, 49.38 19.2, 49.22 24.26 C49.07 29.32, 46.91 36.26, 43.69 40.35 C40.47 44.44, 34.94 47.86, 29.9 48.81 C24.87 49.76, 18.27 48.73, 13.48 46.06 C8.68 43.4, 3.28 37.85, 1.11 32.8 C-1.05 27.74, -1.39 20.48, 0.49 15.73 C2.38 10.98, 7.78 6.87, 12.42 4.3 C17.05 1.73, 25.84 0.74, 28.32 0.32 C30.81 -0.1, 27.45 1.18, 27.34 1.78" stroke-width="4" fill="none" style="stroke: url(#color-5);"/>
    </g>
  </g>
</svg>
